<?xml version="1.0" encoding="utf-8"?>
<!-- Generator: Adobe Illustrator 15.0.0, SVG Export Plug-In . SVG Version: 6.00 Build 0)  -->
<!DOCTYPE svg PUBLIC "-//W3C//DTD SVG 1.1//EN" "http://www.w3.org/Graphics/SVG/1.1/DTD/svg11.dtd">
<svg version="1.1" id="Capa_1" xmlns="http://www.w3.org/2000/svg" xmlns:xlink="http://www.w3.org/1999/xlink" x="0px" y="0px"
	 width="300px" height="71.333px" viewBox="0 12.5 300 71.333" enable-background="new 0 12.5 300 71.333" xml:space="preserve">
<g id="_x23_58595aff">
	<path fill="#58595A" d="M7.957,28.172c2.637-0.006,5.276-0.006,7.914,0c0,2.06,0.018,4.121-0.009,6.18
		c-0.449-0.006-0.897-0.006-1.345-0.001c-0.008,0.576-0.008,1.151,0.001,1.726c-1.662,0.024-3.322,0.014-4.984,0.006
		c-0.001-1.511,0.017-3.02-0.009-4.53c-0.523,0.008-1.047,0.008-1.57,0C7.953,30.426,7.951,29.299,7.957,28.172z"/>
	<path fill="#58595A" d="M39.944,38.245c4.024-1.669,8.53-1.908,12.79-1.16c3.083,0.544,6.039,1.826,8.498,3.772
		c1.318,1.075,2.641,2.207,3.573,3.647c-2.389,1.485-4.747,3.024-7.148,4.487c-0.301-0.14-0.51-0.415-0.761-0.623
		c-1.726-1.573-3.815-2.798-6.12-3.266c-2.344-0.475-4.852-0.381-7.07,0.565c-2.755,1.142-4.939,3.454-6.14,6.161
		c-1.301,2.909-1.546,6.247-0.837,9.343c0.658,2.892,2.299,5.584,4.694,7.355c3.346,2.507,8.032,2.92,11.848,1.29
		c2.161-0.91,4.007-2.422,5.633-4.086c1.886,1.821,3.727,3.689,5.615,5.509c-2.377,2.752-5.333,5.096-8.782,6.342
		c-2.498,0.915-5.175,1.286-7.829,1.253c-4.995,0.048-10.01-1.741-13.771-5.047c-4.066-3.509-6.606-8.677-7.014-14.022
		c-0.36-4.291,0.514-8.701,2.631-12.463C31.999,43.249,35.646,39.986,39.944,38.245z"/>
	<path fill="#58595A" d="M102.498,39.322c2.682-1.504,5.708-2.376,8.772-2.584c4.12-0.244,8.394,0.358,12.057,2.351
		c2.152,1.16,4.053,2.751,5.679,4.57c-1.906,2.064-3.813,4.129-5.731,6.183c-0.298-0.173-0.512-0.453-0.756-0.687
		c-1.577-1.578-3.426-2.948-5.558-3.667c-1.859-0.635-3.872-0.799-5.818-0.551c-2.764,0.385-5.323,1.901-7.06,4.076
		c-2.771,3.404-3.547,8.153-2.516,12.365c0.677,2.714,2.192,5.253,4.418,6.972c3.25,2.578,7.871,3.105,11.705,1.62
		c2.318-0.886,4.277-2.481,6.007-4.226c1.897,1.816,3.746,3.684,5.619,5.521c-1.898,2.126-4.079,4.045-6.623,5.361
		c-2.35,1.229-4.963,1.905-7.599,2.125c-2.57,0.205-5.184,0.091-7.688-0.552c-4.03-0.996-7.739-3.253-10.458-6.393
		c-2.547-2.909-4.224-6.556-4.829-10.37c-0.73-4.616-0.036-9.479,2.151-13.627C96.117,44.265,99.004,41.266,102.498,39.322z"/>
	<path fill="#58595A" d="M217.057,37.745c0.264-0.024,0.53-0.052,0.801-0.052c0.25,0.132,0.514,0.266,0.703,0.487
		c0.156,0.276,0.134,0.608,0.148,0.915c-0.028,4.075,0.016,8.151-0.021,12.225c-0.483,0.007-0.964,0.006-1.443,0.003
		c-0.036-0.202-0.069-0.405-0.1-0.608c-0.085,0.061-0.166,0.123-0.244,0.187c-0.783,0.733-1.941,0.911-2.967,0.731
		c-0.791-0.089-1.546-0.475-2.073-1.07c-0.468-0.56-0.757-1.257-0.905-1.965c-0.062-0.84-0.021-1.683-0.029-2.525
		c-0.054-1.602,0.925-3.26,2.467-3.805c0.616-0.26,1.299-0.189,1.952-0.17c0.636,0.023,1.132,0.46,1.7,0.686
		C217.092,41.104,217.068,39.423,217.057,37.745 M214.129,43.7c-0.469,0.208-0.895,0.556-1.127,1.019
		c-0.494,0.875-0.242,1.915-0.301,2.871c-0.068,0.861,0.293,1.768,1.03,2.249c0.56,0.439,1.321,0.407,1.988,0.304
		c0.532-0.163,1.188-0.438,1.343-1.021c-0.007-1.563,0.049-3.132-0.029-4.69C216.334,43.613,215.121,43.387,214.129,43.7z"/>
	<path fill="#58595A" d="M265.063,38.749c0.315-0.38,0.653-0.925,1.222-0.863c0.421-0.049,0.793,0.179,1.089,0.459
		c-0.257,0.502-0.711,0.857-1.084,1.266c-0.49,0.491-0.866,1.136-1.521,1.427c-0.414,0.128-0.803-0.098-1.162-0.266
		C263.998,40.034,264.601,39.441,265.063,38.749z"/>
	<path fill="#58595A" d="M156.29,40.005c0.943-1.209,2.524-1.834,4.041-1.754c1.097-0.057,2.241,0.106,3.185,0.701
		c0.322,0.213,0.713,0.414,0.851,0.801c0.208,0.478-0.095,0.998-0.43,1.332c-0.122,0.132-0.249,0.137-0.379,0.014
		c-0.379-0.256-0.672-0.625-1.077-0.843c-0.894-0.522-1.986-0.599-2.98-0.386c-1.194,0.312-2.002,1.328-2.494,2.404
		c-0.329,1.277-0.538,2.62-0.304,3.934c0.132,1.437,0.905,2.845,2.173,3.578c0.721,0.38,1.553,0.337,2.344,0.313
		c0.84-0.034,1.584-0.523,2.159-1.105c0.138-0.164,0.346-0.204,0.548-0.237c0.224,0.409,0.675,0.833,0.473,1.338
		c-0.232,0.411-0.639,0.69-1.033,0.928c-1.389,0.76-3.059,0.809-4.576,0.479c-0.996-0.298-1.968-0.826-2.593-1.677
		c-0.858-1.143-1.317-2.578-1.31-4.006c-0.004-1.056-0.082-2.134,0.199-3.165C155.211,41.673,155.706,40.787,156.29,40.005z"/>
	<path fill="#58595A" d="M244.053,39.104c0.111-0.345,0.313-0.713,0.682-0.834c0.467-0.081,1.025-0.019,1.318,0.396
		c0.299,0.562,0.203,1.581-0.55,1.7c-0.358,0.134-0.729-0.004-1.078-0.083C244.24,39.914,243.949,39.541,244.053,39.104z"/>
	<path fill="#58595A" d="M256.701,38.364c0.512-0.256,1.261-0.147,1.546,0.4c0.195,0.431,0.181,1.024-0.188,1.363
		c-0.371,0.375-1.001,0.39-1.438,0.128C256.023,39.823,256.031,38.726,256.701,38.364z"/>
	<path fill="#58595A" d="M232.457,38.528c0.582-0.147,1.31-0.276,1.805,0.159c0.567,0.611,0.627,1.494,0.885,2.253
		c0.346,0.627,0.359,1.391,0.719,2c0.096,0.551,0.267,1.083,0.469,1.604c0.404,1.341,0.87,2.66,1.249,4.009
		c0.083,0.27,0.128,0.564,0.317,0.789c0.309-0.522,0.453-1.115,0.65-1.685c0.166-0.555,0.394-1.098,0.457-1.679
		c0.016,0.06,0.033,0.119,0.055,0.18c0.68-2.188,1.488-4.335,2.164-6.524c0.113-0.413,0.335-0.811,0.689-1.062
		c0.471-0.255,1.049-0.219,1.533-0.018c-0.201,0.45-0.379,0.913-0.454,1.402c-0.024-0.064-0.044-0.128-0.063-0.191
		c-0.138,0.851-0.562,1.614-0.812,2.432c-0.24,0.614-0.415,1.255-0.693,1.853c-0.433,1.48-1.014,2.912-1.53,4.363
		c-0.399,0.997-0.64,2.058-1.12,3.021c-0.592,0.068-1.191,0.047-1.782,0.018c-0.544-1.364-1.026-2.759-1.446-4.166
		c-0.023-0.008-0.07-0.023-0.094-0.03c-0.438-1.521-1.02-2.996-1.551-4.485C233.473,41.338,232.926,39.947,232.457,38.528z"/>
	<path fill="#58595A" d="M185.352,39.522c0.59-0.044,1.408-0.016,1.636,0.654c0.108,0.677-0.036,1.374,0.115,2.049
		c0.946,0.037,1.913-0.12,2.842,0.109c-0.007,0.458,0.019,0.919-0.04,1.374c-0.928,0.055-1.862,0.018-2.791,0.013
		c-0.145,0.689-0.071,1.398-0.086,2.096c0.011,1.018-0.02,2.036,0.011,3.052c0.036,0.62,0.452,1.404,1.171,1.328
		c0.67,0.075,1.179-0.436,1.674-0.804c0.291,0.346,0.648,0.751,0.549,1.245c-0.154,0.515-0.719,0.711-1.17,0.889
		c-1.05,0.287-2.282,0.265-3.181-0.412c-0.588-0.531-0.733-1.373-0.735-2.129C185.35,45.832,185.338,42.677,185.352,39.522z"/>
	<path fill="#58595A" d="M166.174,44.294c0.669-1.289,2.037-2.296,3.536-2.217c1.039-0.091,2.138,0.223,2.858,1.006
		c1.07,1.046,1.105,2.68,0.986,4.075c-1.988,0.007-3.976-0.003-5.964,0.007c-0.091,0.917,0.216,1.893,0.928,2.501
		c0.718,0.574,1.699,0.616,2.57,0.47c0.69-0.148,1.241-0.605,1.796-1.013c0.328,0.417,0.625,0.955,0.396,1.492
		c-0.669,0.735-1.717,1.038-2.688,1.003c-0.743-0.014-1.512,0.068-2.225-0.185c-0.678-0.194-1.245-0.66-1.688-1.195
		c-0.427-0.733-0.83-1.524-0.838-2.392C165.824,46.659,165.732,45.427,166.174,44.294 M168.594,43.809
		c-0.664,0.404-0.984,1.16-1.111,1.896c0.045,0.046,0.137,0.134,0.182,0.18c1.385,0.038,2.773,0.002,4.161,0.015
		c-0.021-0.428,0.062-0.892-0.157-1.283c-0.279-0.594-0.886-1.111-1.575-1.043C169.59,43.593,169.023,43.484,168.594,43.809z"/>
	<path fill="#58595A" d="M178.536,42.256c0.659-0.261,1.384-0.161,2.076-0.167c0.931-0.001,1.677,0.681,2.154,1.416
		c0.446,1.229,0.304,2.553,0.325,3.834c-0.008,1.315,0.011,2.631-0.006,3.947c-0.542,0.277-1.185,0.156-1.758,0.049
		c0.024-2.008,0.006-4.017,0.012-6.026c0.023-0.493-0.172-1.004-0.547-1.329c-0.755-0.55-1.799-0.458-2.622-0.119
		c-0.493,0.208-1.085,0.573-1.036,1.189c0.002,2.096-0.004,4.193,0.005,6.289c-0.553,0.123-1.122,0.126-1.681,0.066
		c-0.119-0.673-0.078-1.357-0.081-2.038c-0.001-2.028,0.001-4.057-0.003-6.085c-0.004-0.342,0.047-0.682,0.09-1.02
		c0.646-0.172,1.306,0.168,1.604,0.751C177.551,42.749,178.017,42.446,178.536,42.256z"/>
	<path fill="#58595A" d="M194.215,42.691c0.57-0.55,1.444-0.7,2.194-0.499c0.313,0.076,0.578,0.305,0.718,0.595
		c0.031,0.47-0.233,0.889-0.403,1.309c-0.443-0.214-0.902-0.464-1.411-0.411c-0.801-0.029-1.567,0.604-1.693,1.387
		c-0.023,2.081,0.02,4.162-0.018,6.243c-0.444,0.013-0.891,0.046-1.332-0.007c-0.215-0.159-0.155-0.441-0.171-0.67
		c0.013-2.03,0.003-4.06,0.007-6.089c0.019-0.674-0.054-1.352,0.03-2.024c-0.005-0.266,0.343-0.191,0.516-0.196
		c0.47-0.021,0.733,0.4,1.05,0.67C193.92,43.023,194.051,42.801,194.215,42.691z"/>
	<path fill="#58595A" d="M197.76,46.199c-0.134-1.953,1.432-3.847,3.372-4.099c0.714-0.044,1.438-0.044,2.142,0.112
		c-0.069,0.029-0.135,0.06-0.199,0.09c0.938,0.03,1.623,0.815,2.043,1.578c0.539,0.981,0.434,2.131,0.401,3.206
		c-0.163,0.127-0.388,0.057-0.574,0.08c-1.802-0.008-3.601-0.007-5.4-0.001c-0.106,0.919,0.241,1.867,0.953,2.466
		c0.638,0.613,1.585,0.625,2.411,0.538c0.751-0.097,1.359-0.573,1.928-1.036c0.342,0.399,0.802,1.029,0.386,1.532
		c-0.855,0.873-2.149,1.067-3.319,1.027c-0.438-0.045-0.872-0.108-1.311-0.119c-0.01-0.028-0.03-0.082-0.041-0.109
		c-1.223-0.273-2.17-1.291-2.56-2.454C197.619,48.118,197.807,47.134,197.76,46.199 M199.559,45.309
		c0.01,0.208-0.158,0.631,0.205,0.588c1.365,0.013,2.732-0.008,4.1,0.006c0.041-0.742-0.144-1.589-0.808-2.018
		c-0.534-0.456-1.277-0.295-1.92-0.292C200.324,43.768,199.732,44.523,199.559,45.309z"/>
	<path fill="#58595A" d="M221.984,43.213c0.563-0.641,1.391-0.975,2.216-1.115c0.787-0.028,1.62-0.096,2.354,0.257
		c1.183,0.535,2.003,1.788,2.038,3.085c0.021,0.568,0.009,1.138-0.006,1.707c-2.021,0.025-4.042,0.014-6.063,0.006
		c-0.043,1.064,0.473,2.167,1.383,2.749c0.629,0.362,1.387,0.318,2.086,0.268c0.736-0.093,1.303-0.596,1.898-0.986
		c0.393,0.236,0.563,0.757,0.565,1.195c-0.337,0.697-1.144,0.967-1.835,1.175c-0.885,0.106-1.787,0.076-2.676,0.025
		c-0.983-0.217-1.953-0.765-2.445-1.674c-0.795-1.208-0.85-2.703-0.744-4.097C220.936,44.858,221.275,43.9,221.984,43.213
		 M223.554,43.89c-0.675,0.417-1.025,1.234-0.972,2.012c1.448-0.024,2.9,0.043,4.348-0.034c0.033-0.407-0.098-0.8-0.205-1.186
		c-0.127-0.497-0.578-0.818-1.001-1.053C225.004,43.57,224.172,43.419,223.554,43.89z"/>
	<path fill="#58595A" d="M249.963,42.307c0.672-0.29,1.416-0.227,2.131-0.221c0.576,0,1.105,0.256,1.651,0.407
		c0.233,0.166,0.472,0.33,0.664,0.546c0.149,0.495,0.003,1.032-0.308,1.434c-0.27,0.105-0.436-0.16-0.623-0.295
		c-0.188-0.171-0.418-0.283-0.646-0.381c-0.037-0.051-0.072-0.102-0.104-0.152c-0.633-0.08-1.275-0.288-1.907-0.093
		c-0.519,0.093-1.058,0.551-0.958,1.125c0.005,0.47,0.445,0.746,0.838,0.897c1.021,0.445,2.23,0.435,3.121,1.172
		c0.666,0.476,0.973,1.314,0.897,2.115c0.095,1.193-0.882,2.191-1.944,2.561c-0.658,0.272-1.384,0.173-2.077,0.191
		c-0.859,0.024-1.765-0.188-2.433-0.747c-0.224-0.547,0.04-1.112,0.292-1.597c0.693,0.427,1.409,0.956,2.265,0.934
		c0.566-0.016,1.217,0.11,1.686-0.296c0.62-0.394,0.732-1.391,0.144-1.863c-0.782-0.674-1.897-0.607-2.81-0.999
		c-0.721-0.289-1.37-0.862-1.6-1.619c-0.061-0.499-0.064-1.01,0.002-1.508C248.518,43.142,249.189,42.557,249.963,42.307z"/>
	<path fill="#58595A" d="M256.575,42.174c0.409,0.02,0.867-0.043,1.214,0.229c0.26,0.154,0.351,0.465,0.338,0.752
		c0.008,1.902-0.013,3.805,0.008,5.706c0.065,0.51,0.096,1.024,0.162,1.534c0.239,0.133,0.51,0.178,0.783,0.214
		c0.033,0.234,0.059,0.47,0.09,0.706c-0.481,0.189-1.004,0.174-1.51,0.156c-0.626,0.018-1.16-0.602-1.1-1.213
		c0.002-2.029-0.002-4.058,0.002-6.087C256.579,43.503,256.472,42.836,256.575,42.174z"/>
	<path fill="#58595A" d="M262.768,42.438c0.808-0.445,1.748-0.366,2.637-0.347c1.132,0.081,2.127,0.801,2.76,1.715
		c0.693,1.276,0.672,2.763,0.57,4.171c-0.08,0.809-0.426,1.562-0.82,2.26c-0.645,0.852-1.688,1.429-2.771,1.379
		c-0.809-0.019-1.662,0.104-2.42-0.245c-0.91-0.361-1.577-1.163-1.941-2.052c-0.471-1.29-0.523-2.726-0.227-4.058
		C260.796,44.036,261.707,43.039,262.768,42.438 M263.45,43.868c-0.69,0.344-1.019,1.111-1.165,1.826
		c-0.059,0.801-0.051,1.611,0.002,2.414c0.148,0.882,0.775,1.689,1.613,2.022c0.715,0.145,1.547,0.136,2.123-0.38
		c0.841-0.604,1.02-1.704,1.091-2.665c0.056-0.69-0.151-1.362-0.171-2.049c-0.061-0.025-0.118-0.052-0.172-0.076
		c-0.18-0.658-0.755-1.125-1.377-1.341C264.742,43.568,264.021,43.478,263.45,43.868z"/>
	<path fill="#58595A" d="M244.409,42.188c0.489-0.015,1.076-0.037,1.433,0.366c0.277,0.301,0.229,0.729,0.239,1.105
		c-0.005,1.734,0,3.466-0.003,5.2c0.002,0.521-0.044,1.053,0.094,1.563c0.252,0.072,0.51,0.135,0.761,0.229
		c0.037,0.221,0.046,0.445,0.069,0.67c-0.521,0.205-1.091,0.162-1.637,0.139c-0.634-0.055-1.023-0.736-0.97-1.327
		C244.408,47.484,244.383,44.835,244.409,42.188z"/>
	<path fill="#58595A" d="M280.302,59.787c0.444-0.008,0.979-0.125,1.343,0.203c0.238,0.23,0.307,0.585,0.303,0.906
		c-0.01,3.91,0.002,7.82-0.006,11.729c-0.499,0.017-0.996,0.015-1.491,0.021c-0.071-0.165-0.138-0.327-0.199-0.49
		c-0.569,0.388-1.212,0.751-1.92,0.74c-0.608-0.003-1.251,0.063-1.813-0.213c-0.971-0.392-1.645-1.286-1.965-2.259
		c-0.287-1.334-0.316-2.744,0.092-4.057c0.352-1.018,1.086-1.977,2.147-2.305c0.646-0.266,1.361-0.204,2.044-0.167
		c0.518,0.112,0.955,0.444,1.469,0.581C280.319,62.914,280.322,61.35,280.302,59.787 M277.497,65.371
		c-0.416,0.189-0.792,0.484-1.013,0.889c-0.549,0.855-0.379,1.918-0.383,2.88c-0.018,1.003,0.598,2.044,1.592,2.332
		c0.597,0.052,1.236,0.095,1.793-0.173c0.426-0.148,0.836-0.532,0.825-1.012c0.009-1.23-0.006-2.461,0.007-3.689
		c-0.013-0.195,0.026-0.426-0.139-0.567C279.516,65.316,278.409,65.081,277.497,65.371z"/>
	<path fill="#58595A" d="M209.915,60.353c1.545-0.267,3.247-0.263,4.624,0.585c0.34,0.225,0.78,0.51,0.756,0.971
		c0.041,0.419-0.193,0.931-0.586,1.087c-0.375-0.091-0.602-0.474-0.92-0.673c-0.875-0.67-2.058-0.734-3.102-0.541
		c-1.279,0.265-2.145,1.441-2.454,2.649c-0.294,0.863-0.204,1.784-0.217,2.679c-0.021,1.09,0.294,2.199,0.938,3.084
		c0.613,0.844,1.667,1.32,2.703,1.299c0.434,0.014,0.881,0.008,1.275-0.195c0.711-0.165,1.182-0.739,1.773-1.11
		c0.454,0.284,0.765,0.813,0.544,1.349c-0.331,0.553-0.976,0.789-1.534,1.044c-1.008,0.458-2.137,0.312-3.207,0.29
		c-1.071-0.185-2.129-0.677-2.836-1.521c-0.892-0.99-1.202-2.338-1.361-3.624c-0.105-1.628-0.047-3.329,0.668-4.829
		c0.602-1.226,1.765-2.252,3.134-2.471C210.045,60.399,209.979,60.375,209.915,60.353z"/>
	<path fill="#58595A" d="M259.532,61.455c0.585-0.06,1.307-0.034,1.612,0.568c-0.01,0.7-0.025,1.401,0.012,2.102
		c0.883,0.004,1.767-0.004,2.652,0.018c0.002,0.377,0.004,0.754,0.005,1.13c-0.866,0.028-1.733,0.029-2.599,0
		c-0.266,0.755-0.154,1.562-0.164,2.345c0.017,0.945-0.096,1.908,0.146,2.836c0.052,0.572,0.548,1.134,1.159,1.051
		c0.61,0.068,1.078-0.383,1.542-0.705c0.337,0.365,0.606,0.864,0.392,1.363c-0.468,0.553-1.234,0.756-1.934,0.739
		c-0.555-0.017-1.156,0.071-1.65-0.232c-0.501-0.263-0.845-0.75-0.978-1.292c-0.024-0.01-0.073-0.028-0.099-0.039
		c0.03-0.82-0.137-1.632-0.104-2.453C259.532,66.408,259.521,63.932,259.532,61.455z"/>
	<path fill="#58595A" d="M181.387,64.338c0.756-0.588,1.758-0.48,2.654-0.443c0.939,0.147,1.716,0.825,2.199,1.617
		c0.649,1.141,0.547,2.497,0.517,3.761c-0.094,0.802-0.314,1.62-0.821,2.267c-0.543,0.78-1.442,1.363-2.412,1.355
		c-0.506,0-1.021,0.035-1.518-0.057c-0.408-0.174-0.784-0.41-1.185-0.592c-0.04,1.406-0.026,2.817-0.008,4.226
		c-0.548,0.024-1.097,0.022-1.646,0.005c0-3.969,0.002-7.938,0-11.906c-0.012-0.195,0.036-0.399,0.184-0.539
		c0.495-0.141,1.001,0.117,1.307,0.505C180.872,64.852,181.172,64.456,181.387,64.338 M182.035,65.33
		c-0.593,0.146-1.258,0.581-1.235,1.264c0.021,1.307-0.046,2.619,0.032,3.922c0.527,0.902,1.719,1.125,2.676,0.936
		c0.854-0.259,1.354-1.146,1.472-1.984c0.167-0.685,0.174-1.399,0.019-2.086c-0.084-0.684-0.383-1.379-0.949-1.794
		C183.468,65.171,182.703,65.215,182.035,65.33z"/>
	<path fill="#58595A" d="M188.652,65.783c0.563-1.105,1.732-1.886,2.98-1.91c0.467-0.002,0.941-0.03,1.408,0.047
		c0.945,0.26,1.773,0.951,2.181,1.846c0.325,0.922,0.503,1.929,0.282,2.896c-1.9,0.048-3.803,0.01-5.703,0.021
		c-0.021,0.891,0.314,1.838,1.023,2.41c0.633,0.485,1.466,0.435,2.221,0.391c0.219-0.01,0.424-0.104,0.629-0.182
		c0.434-0.175,0.808-0.457,1.151-0.773c0.354,0.339,0.735,0.859,0.462,1.359c-0.455,0.564-1.178,0.839-1.87,0.976
		c-1.097,0.062-2.256,0.131-3.276-0.353c-0.994-0.566-1.768-1.563-1.928-2.712c-0.064-0.517-0.127-1.033-0.178-1.55
		C188.135,67.409,188.203,66.525,188.652,65.783 M190.641,65.608c-0.563,0.437-0.838,1.136-0.752,1.841
		c1.333,0.007,2.665,0.004,3.998,0.002c0.109-0.891-0.324-1.898-1.23-2.168C191.979,65.248,191.195,65.128,190.641,65.608z"/>
	<path fill="#58595A" d="M199.863,64.077c0.418-0.276,0.938-0.198,1.413-0.202c0.452-0.043,0.881,0.29,1.032,0.705
		c-0.079,0.407-0.134,0.861-0.408,1.189c-0.314,0.012-0.573-0.242-0.884-0.26c-0.474-0.023-1.001-0.079-1.413,0.203
		c-0.434,0.249-0.598,0.791-0.568,1.266c0.016,1.883-0.015,3.768,0.018,5.651c-0.537-0.003-1.087,0.072-1.614-0.044
		c-0.073-1.316-0.007-2.638-0.029-3.955c0.011-1.435-0.019-2.869,0.012-4.303c0.081-0.43,0.612-0.359,0.921-0.251
		c0.346,0.104,0.504,0.459,0.746,0.698C199.324,64.521,199.544,64.236,199.863,64.077z"/>
	<path fill="#58595A" d="M219.092,64.056c0.695-0.298,1.474-0.155,2.21-0.171c1.732,0.214,3.112,1.875,3.111,3.607
		c-0.019,1.087,0.159,2.254-0.368,3.257c-0.475,1.06-1.466,1.907-2.615,2.122c-1.034,0.021-2.171,0.188-3.089-0.407
		c-0.682-0.366-1.204-0.979-1.483-1.697c-0.61-1.542-0.621-3.351,0.1-4.858C217.359,65.013,218.195,64.4,219.092,64.056
		 M219.702,65.366c-0.968,0.351-1.497,1.39-1.534,2.372c-0.04,1.025-0.076,2.166,0.617,3.004c0.408,0.607,1.173,0.84,1.877,0.761
		c0.716,0.056,1.34-0.46,1.697-1.04c0.477-0.773,0.4-1.722,0.402-2.592c0.023-0.845-0.318-1.732-1.004-2.249
		C221.187,65.162,220.371,65.184,219.702,65.366z"/>
	<path fill="#58595A" d="M228.002,64.688c0.57-0.298,1.115-0.705,1.77-0.798c0.73-0.018,1.5-0.104,2.186,0.209
		c0.396,0.135,0.647,0.492,0.998,0.704c0.551-0.198,0.979-0.716,1.607-0.705c-0.068-0.034-0.135-0.067-0.196-0.101
		c0.616-0.151,1.255-0.135,1.886-0.122c1.215-0.009,2.295,1.142,2.236,2.349c0.006,2.137,0.006,4.273-0.002,6.41
		c-0.518,0.01-1.035,0.01-1.551-0.005c0.031-1.884,0-3.767,0.018-5.65c0.049-0.656-0.318-1.4-0.987-1.584
		c-0.892-0.317-1.878,0.047-2.567,0.635c-0.015,2.196,0.01,4.397-0.003,6.597c-0.491,0.014-0.983,0.036-1.472,0.002
		c-0.132-0.122-0.186-0.27-0.162-0.446c-0.002-1.68,0.009-3.36-0.002-5.04c-0.036-0.492-0.043-1.08-0.462-1.418
		c-0.616-0.507-1.521-0.579-2.228-0.225c-0.513,0.225-1.173,0.563-1.125,1.224c-0.004,1.961-0.016,3.921,0.008,5.884
		c-0.518,0.044-1.035,0.04-1.551,0.027c-0.012-2.775-0.004-5.551-0.006-8.326c-0.034-0.336,0.379-0.342,0.612-0.295
		C227.447,64.037,227.695,64.43,228.002,64.688z"/>
	<path fill="#58595A" d="M243.424,64.063c0.533-0.238,1.127-0.192,1.697-0.191c1.188-0.028,2.278,0.779,2.777,1.829
		c0.549,1.059,0.453,2.285,0.438,3.438c-0.078,1.465-0.869,3.041-2.322,3.555c-0.633,0.314-1.359,0.184-2.039,0.196
		c-0.615,0.021-1.081-0.44-1.575-0.735c-0.051,1.443-0.009,2.885-0.021,4.327c-0.546,0.011-1.093,0.008-1.638,0.004
		c0-4.124-0.002-8.249,0.001-12.372c0.356-0.004,0.723-0.041,1.077,0.035c0.23,0.149,0.415,0.355,0.635,0.521
		C242.764,64.45,243.052,64.183,243.424,64.063 M243.388,65.381c-0.515,0.176-1.067,0.617-1.011,1.215
		c0.015,1.312-0.029,2.625,0.021,3.934c0.566,0.884,1.748,1.123,2.719,0.916c0.615-0.195,1.014-0.756,1.242-1.331
		c0.326-0.7,0.225-1.492,0.238-2.239c0.032-0.738-0.249-1.471-0.713-2.036C245.273,65.131,244.215,65.168,243.388,65.381z"/>
	<path fill="#58595A" d="M250.026,63.954c0.654-0.19,1.569,0.138,1.621,0.903c0.019,1.68-0.001,3.361,0.007,5.044
		c0.001,0.469,0.096,1.017,0.51,1.306c0.6,0.43,1.396,0.307,2.086,0.238c0.578-0.209,1.262-0.557,1.428-1.197
		c0.031-2.064-0.015-4.131,0.02-6.196c0.365-0.329,0.859-0.064,1.213,0.147c0.401,0.283,0.349,0.828,0.406,1.262
		c0.01,2.387,0.008,4.775,0,7.161c-0.524,0.025-1.048,0.021-1.571,0.019c-0.072-0.188-0.142-0.375-0.21-0.561
		c-0.439,0.307-0.891,0.619-1.411,0.77c-0.548,0.073-1.103,0.048-1.651,0.045c-1.056,0.066-2.12-0.733-2.307-1.784
		c-0.089-0.527-0.184-1.056-0.161-1.592C250.023,67.664,249.983,65.809,250.026,63.954z"/>
	<path fill="#58595A" d="M266.316,64.48c1.18-0.693,2.591-0.663,3.91-0.57c0.701,0.162,1.4,0.518,1.797,1.143
		c0.291,0.999,0.152,2.047,0.181,3.071c0.03,1.185-0.153,2.411,0.299,3.542c0.318,0.194,0.927,0.357,0.748,0.853
		c-0.517,0.247-1.128,0.214-1.667,0.068c-0.329-0.159-0.55-0.47-0.857-0.657c-0.475,0.203-0.88,0.551-1.386,0.678
		c-0.854,0.23-1.788,0.228-2.62-0.084c-0.525-0.203-0.885-0.662-1.201-1.103c-0.25-0.744-0.275-1.583,0.021-2.318
		c0.347-0.659,0.968-1.134,1.622-1.466c1.105-0.506,2.348-0.508,3.539-0.469c0.295-0.79-0.238-1.815-1.114-1.881
		c-0.737-0.028-1.532-0.119-2.204,0.25c-0.392,0.176-0.773,0.494-1.229,0.373C265.879,65.494,265.76,64.721,266.316,64.48
		 M267.416,69.121c-0.764,0.606-0.545,2.01,0.396,2.311c0.943,0.213,1.99-0.055,2.69-0.732c0.103-0.127,0.284-0.232,0.285-0.416
		c0.041-0.62,0.007-1.241,0.016-1.861C269.65,68.388,268.346,68.309,267.416,69.121z"/>
	<path fill="#58595A" d="M284.136,66.098c0.587-1.123,1.636-2.059,2.928-2.213c0.79,0.004,1.631-0.129,2.368,0.229
		c1.343,0.542,2.231,1.946,2.285,3.373c0.023,0.297,0.104,0.587,0.102,0.887c-0.084,0.958-0.178,1.959-0.699,2.797
		c-0.598,1.008-1.715,1.76-2.908,1.727c-0.758-0.004-1.559,0.08-2.26-0.266c-0.998-0.41-1.679-1.354-2.002-2.355
		C283.591,68.904,283.622,67.426,284.136,66.098 M286.984,65.366c-0.816,0.259-1.271,1.084-1.475,1.862
		c-0.078,0.763-0.066,1.535-0.004,2.299c0.211,0.822,0.701,1.693,1.576,1.936c0.699,0.08,1.501,0.125,2.067-0.374
		c0.759-0.672,0.946-1.745,0.919-2.711c0.017-0.91-0.089-1.933-0.779-2.6C288.698,65.172,287.748,65.164,286.984,65.366z"/>
	<path fill="#58595A" d="M293.608,64.004c0.396,0.009,0.841-0.043,1.184,0.207c0.174,0.16,0.271,0.387,0.395,0.586
		c0.286-0.3,0.587-0.605,0.979-0.767c0.398-0.22,0.869-0.153,1.309-0.154c0.316-0.019,0.603,0.155,0.826,0.368
		c0.154,0.534,0.008,1.104-0.227,1.594c-0.614-0.334-1.32-0.438-2.002-0.288c-0.472,0.183-0.879,0.644-0.839,1.174
		c0.003,1.954-0.017,3.909,0.013,5.863c-0.549,0.081-1.105,0.06-1.655,0.05C293.611,69.758,293.578,66.881,293.608,64.004z"/>
</g>
<g id="_x23_b6b7b9ff">
	<path fill="#B6B7B9" d="M22.845,14.389c2.407-0.004,4.815,0,7.223-0.001c0,2.417,0.002,4.834-0.001,7.251
		c-2.407,0.004-4.815,0.002-7.222,0C22.848,19.222,22.851,16.806,22.845,14.389z"/>
	<path fill="#B6B7B9" d="M9.535,40.464c1.659-0.002,3.317-0.001,4.976,0c0.002,1.075,0.004,2.151-0.001,3.227
		c0.942,0.007,1.882,0.002,2.823,0.003c0,3.486,0,6.972,0,10.456c-2.777,0.002-5.554-0.001-8.332,0.003
		c-0.004-1.775,0-3.55-0.001-5.324c-1.784-0.001-3.569-0.003-5.354,0.001c-0.002-2.347-0.002-4.693,0-7.039
		c1.963,0.002,3.927,0.004,5.89,0C9.539,41.349,9.538,40.906,9.535,40.464z"/>
</g>
<g id="_x23_892332ff">
	<path fill="#892332" d="M13.787,17.019c2.778,0,5.558-0.019,8.336,0.009c-0.006,1.772-0.018,3.544,0.006,5.315
		c1.781-0.007,3.563-0.01,5.345,0.001c-0.004,2.341-0.005,4.681,0,7.021c-1.966,0.014-3.932,0.002-5.896,0.005
		c0,0.433,0,0.863-0.003,1.295c-1.656,0.009-3.314,0.009-4.972,0c-0.003-1.066,0.005-2.133-0.004-3.199
		c-0.938,0.006-1.876,0.006-2.813,0C13.781,23.985,13.781,20.502,13.787,17.019z"/>
	<path fill="#892332" d="M0,32.256c2.934,0,5.87,0,8.804,0c0.005,2.948,0.016,5.896-0.006,8.844C5.866,41.091,2.933,41.098,0,41.096
		V32.256z"/>
	<path fill="#892332" d="M15.241,35.076c2.626-0.003,5.252,0.006,7.877-0.005c0.025,2.63,0.012,5.26,0.008,7.89
		c-2.63,0.003-5.26,0.018-7.89-0.007C15.247,40.328,15.238,37.702,15.241,35.076z"/>
	<path fill="#892332" d="M85.619,37.516c3.245-0.001,6.49,0,9.735,0c-0.705,2.167-1.523,4.297-2.271,6.45
		c-4.078,11.422-8.136,22.851-12.227,34.268c-2.522-0.005-5.043,0-7.565-0.003c-4.86-9.154-9.743-18.298-14.613-27.448
		c2.407-1.492,4.791-3.022,7.208-4.499c3.617,6.935,7.184,13.898,10.819,20.823c1.624-5.235,3.162-10.501,4.755-15.747
		C82.844,46.745,84.23,42.13,85.619,37.516z"/>
	<path fill="#892332" d="M1.045,49.525c2.406,0,4.812,0.002,7.218-0.001c0.013,2.406,0.006,4.814,0.002,7.222
		c-2.407,0.004-4.815,0.011-7.222-0.003C1.048,54.336,1.045,51.93,1.045,49.525z"/>
	<path fill="#892332" d="M10.368,59.663c1.232,0.003,2.465,0.005,3.697-0.003c0.009,1.236,0.001,2.471,0.004,3.706
		c-1.234,0.008-2.47,0.009-3.705-0.001C10.361,62.131,10.355,60.896,10.368,59.663z"/>
</g>
<g id="_x23_8e8f91ff">
	<path fill="#8E8F91" d="M22.307,30.071c2.936-0.002,5.871-0.001,8.805,0c0.006,2.936,0.006,5.871,0,8.806
		c-2.417,0-4.835,0.005-7.253-0.002c0-1.509,0.01-3.02-0.006-4.531c-0.515,0.005-1.03,0.005-1.545,0.001
		C22.307,32.92,22.307,31.496,22.307,30.071z"/>
</g>
<g id="_x23_d27428ff">
	<path fill="#D27428" d="M133.431,37.423c5.628-0.005,11.257-0.002,16.886-0.001c0,5.333,0.001,10.668-0.001,16.002
		c-0.077,2.56-0.69,5.242-2.403,7.225c-1.659,1.9-3.914,3.159-6.199,4.155c-1.309-1.51-2.635-3.005-3.935-4.522
		c1.217-0.59,2.435-1.226,3.452-2.131c1.102-0.961,1.724-2.391,1.808-3.84c-3.203-0.004-6.406,0-9.608-0.002
		C133.428,48.681,133.426,43.052,133.431,37.423 M137.364,40.469c-0.008,3.608-0.008,7.216,0,10.824
		c1.072,0.008,2.146,0.008,3.219,0c0.008-1.236,0.005-2.47,0.001-3.706c0.45,0.022,0.92-0.014,1.348,0.151
		c0.468,0.199,0.601,0.743,0.692,1.194c0.133,0.777,0.208,1.564,0.389,2.332c1.126,0.068,2.257,0.023,3.386,0.026
		c-0.23-0.728-0.365-1.48-0.45-2.237c-0.119-0.768-0.172-1.613-0.687-2.237c-0.379-0.444-0.987-0.557-1.539-0.589
		c0.758-0.193,1.577-0.515,1.968-1.244c0.619-1.146,0.418-2.728-0.551-3.622c-0.716-0.677-1.729-0.894-2.686-0.896
		C140.759,40.465,139.061,40.46,137.364,40.469z"/>
	<path fill="#D27428" d="M140.584,43.158c0.635,0.012,1.319-0.076,1.906,0.218c0.601,0.305,0.598,1.285,0.022,1.616
		c-0.575,0.355-1.281,0.237-1.922,0.265C140.583,44.558,140.589,43.858,140.584,43.158z"/>
</g>
<g id="_x23_4d3d3d4c">
	<path opacity="0.3" fill="#4D3D3D" enable-background="new    " d="M217.857,37.693c0.602-0.002,1.16,0.527,1.098,1.146
		c-0.018,4.203,0.011,8.407-0.015,12.611c-0.593,0.035-1.188,0.043-1.779,0.03c-0.019-0.154-0.034-0.309-0.048-0.461
		c-0.054-0.029-0.16-0.09-0.213-0.118c0.078-0.063,0.159-0.126,0.244-0.187c0.03,0.203,0.063,0.406,0.1,0.608
		c0.479,0.003,0.96,0.004,1.443-0.003c0.037-4.074-0.007-8.15,0.021-12.225c-0.015-0.307,0.008-0.639-0.148-0.915
		C218.371,37.959,218.107,37.825,217.857,37.693z"/>
	<path opacity="0.3" fill="#4D3D3D" enable-background="new    " d="M192.233,42.11c0.639-0.187,1.169,0.356,1.545,0.801
		c0.362-0.366,0.766-0.767,1.304-0.836c0.45-0.047,0.908-0.045,1.361-0.01c0.313,0.01,0.559,0.257,0.713,0.511
		c0.142,0.522-0.02,1.082-0.285,1.538c-0.252,0.122-0.506-0.066-0.746-0.128c-0.48-0.197-1.036-0.197-1.517-0.008
		c-0.404,0.199-0.774,0.591-0.741,1.072c-0.013,2.134,0.023,4.27-0.016,6.404c-0.631,0.04-1.264,0.044-1.894,0.002
		c-0.024-2.853,0.004-5.706-0.015-8.559C191.957,42.622,191.908,42.227,192.233,42.11 M194.215,42.691
		c-0.164,0.11-0.295,0.332-0.514,0.309c-0.316-0.27-0.58-0.692-1.05-0.67c-0.173,0.005-0.521-0.07-0.516,0.196
		c-0.084,0.672-0.012,1.35-0.03,2.024c-0.004,2.029,0.006,4.059-0.007,6.089c0.016,0.229-0.044,0.511,0.171,0.67
		c0.441,0.053,0.888,0.02,1.332,0.007c0.037-2.081-0.006-4.162,0.018-6.243c0.126-0.783,0.893-1.416,1.693-1.387
		c0.509-0.053,0.968,0.197,1.411,0.411c0.17-0.42,0.435-0.839,0.403-1.309c-0.14-0.29-0.404-0.519-0.718-0.595
		C195.659,41.991,194.785,42.141,194.215,42.691z"/>
	<path opacity="0.3" fill="#4D3D3D" enable-background="new    " d="M268.164,43.806c0.588,0.543,0.604,1.399,0.777,2.128
		c0.212,0.917,0.003,1.854-0.203,2.751c-0.159,0.566-0.354,1.166-0.824,1.551c0.395-0.698,0.74-1.451,0.82-2.26
		C268.836,46.569,268.857,45.083,268.164,43.806z"/>
	<path opacity="0.3" fill="#4D3D3D" enable-background="new    " d="M165.611,45.964c0.107-0.577,0.209-1.184,0.563-1.67
		c-0.441,1.133-0.35,2.365-0.33,3.554c0.008,0.868,0.411,1.659,0.838,2.392c-0.504-0.41-0.702-1.044-0.875-1.643
		C165.525,47.75,165.539,46.843,165.611,45.964z"/>
	<path opacity="0.3" fill="#4D3D3D" enable-background="new    " d="M261.145,62.023c0.176,0.611,0.104,1.252,0.104,1.879
		c0.709,0.004,1.42-0.023,2.131-0.008c0.197,0.02,0.492-0.004,0.586,0.227c0.171,0.451,0.041,0.943-0.018,1.404
		c-0.898,0.036-1.797-0.019-2.691,0.043c0.016,0.936,0.008,1.873,0.01,2.81c-0.004,0.692,0.041,1.389-0.069,2.075
		c-0.241-0.928-0.129-1.891-0.146-2.836c0.01-0.783-0.102-1.59,0.164-2.345c0.865,0.029,1.732,0.028,2.599,0
		c-0.001-0.376-0.003-0.753-0.005-1.13c-0.886-0.021-1.77-0.014-2.652-0.018C261.119,63.425,261.135,62.724,261.145,62.023z"/>
	<path opacity="0.3" fill="#4D3D3D" enable-background="new    " d="M272.023,65.053c0.646,0.896,0.404,2.043,0.444,3.071
		c0.038,1.177-0.114,2.37,0.149,3.528c0.24,0.059,0.484,0.115,0.729,0.177c0.003,0.285,0.007,0.569,0.014,0.855
		c-0.535,0.251-1.17,0.295-1.723,0.095c-0.383-0.137-0.645-0.459-0.914-0.741c-0.529,0.343-1.076,0.7-1.707,0.821
		c-1.006,0.166-2.137,0.09-2.949-0.584c-0.287-0.207-0.424-0.54-0.547-0.854c0.316,0.44,0.676,0.899,1.201,1.103
		c0.832,0.312,1.766,0.314,2.62,0.084c0.506-0.127,0.911-0.475,1.386-0.678c0.308,0.188,0.528,0.498,0.857,0.657
		c0.539,0.146,1.15,0.179,1.667-0.068c0.179-0.495-0.43-0.658-0.748-0.853c-0.452-1.131-0.269-2.357-0.299-3.542
		C272.176,67.1,272.314,66.052,272.023,65.053z"/>
</g>
<g id="_x23_ffffffff">
	<path fill="#FFFFFF" d="M137.364,40.469c1.697-0.009,3.396-0.003,5.092-0.003c0.957,0.002,1.97,0.219,2.686,0.896
		c0.969,0.895,1.17,2.477,0.551,3.622c-0.392,0.729-1.21,1.051-1.968,1.244c0.551,0.033,1.16,0.146,1.539,0.589
		c0.515,0.624,0.568,1.469,0.687,2.237c0.085,0.757,0.219,1.509,0.45,2.237c-1.129-0.003-2.26,0.042-3.386-0.026
		c-0.182-0.768-0.256-1.555-0.389-2.332c-0.091-0.451-0.225-0.995-0.692-1.194c-0.428-0.165-0.898-0.128-1.348-0.151
		c0.003,1.236,0.006,2.47-0.001,3.706c-1.074,0.008-2.147,0.008-3.219,0C137.356,47.685,137.356,44.077,137.364,40.469
		 M140.584,43.158c0.005,0.7-0.001,1.399,0.006,2.099c0.641-0.028,1.347,0.09,1.922-0.265c0.576-0.331,0.578-1.311-0.022-1.616
		C141.904,43.083,141.219,43.17,140.584,43.158z"/>
</g>
</svg>
