<?xml version="1.0" standalone="yes"?>

<svg version="1.1" viewBox="0.0 0.0 780.2992125984252 303.58792650918633" fill="none" stroke="none" stroke-linecap="square" stroke-miterlimit="10" xmlns="http://www.w3.org/2000/svg" xmlns:xlink="http://www.w3.org/1999/xlink"><clipPath id="p.0"><path d="m0 0l780.2992 0l0 303.58792l-780.2992 0l0 -303.58792z" clip-rule="nonzero"></path></clipPath><g clip-path="url(#p.0)"><path fill="#000000" fill-opacity="0.0" d="m0 0l780.2992 0l0 303.58792l-780.2992 0z" fill-rule="nonzero"></path><path fill="#4fb0df" d="m619.1299 121.28497l-0.9962158 0.057785034l-1.8189697 0.58706665l-1.5254517 1.3497925l-1.116333 2.1702957l-0.35131836 1.4676666l-8.214294 48.285072l-0.29351807 1.9368591l-0.057800293 1.4075775l0 0.8806l0.46917725 1.4075775l0.8204956 0.9984741l1.2919922 0.5269623l0.82055664 0.06010437l0.7626953 -0.06010437l1.2919922 -0.29353333l1.1140747 -0.70262146l0.70495605 -1.2920074l0.11553955 -0.8782959l6.982422 -48.287384l0.060058594 0l14.313782 48.463043l0.3536377 0.82051086l0.76275635 1.2319183l0.9961548 0.6448364l1.116333 0.29353333l0.6448364 0.06010437l0.58709717 -0.06010437l1.171814 -0.29353333l0.9383545 -0.6448364l0.82281494 -1.2319183l0.2935791 -0.82051086l14.316101 -48.463043l0.17565918 0l7.040161 48.287384l0.17565918 0.8782959l0.70495605 1.2920074l1.0562744 0.70262146l1.2896729 0.29353333l0.7626953 0.06010437l0.82055664 -0.06010437l1.2919922 -0.5269623l0.8204956 -1.0562592l0.46917725 -1.4075775l0 -0.82281494l-0.057739258 -1.4075775l-0.2935791 -1.9368591l-8.214294 -48.285072l-0.35131836 -1.4676666l-1.0562744 -2.1702957l-1.5254517 -1.3497925l-1.87677 -0.58706665l-0.9984741 -0.057785034l-1.0562134 0.057785034l-1.7589111 0.41140747l-1.2919922 0.938385l-0.9384155 1.525444l-0.35131836 0.99848175l-12.848389 43.944473l-0.11791992 0l-12.84845 -43.944473l-0.35357666 -0.99848175l-0.9384155 -1.525444l-1.2896729 -0.938385l-1.7612305 -0.41140747l-1.0562134 -0.057785034z" fill-rule="nonzero"></path><path fill="#4fb0df" d="m682.9653 121.28497l-0.82281494 0.057785034l-1.3497925 0.58706665l-0.9384155 0.9984741l-0.5269165 1.4653549l-0.06011963 0.8806l0 53.21505l0.06011963 0.8806l0.5269165 1.5254517l0.9384155 0.99617004l1.3497925 0.5292816l0.82281494 0.057785034l0.8204956 -0.057785034l1.3497925 -0.5292816l0.9384155 -1.0562592l0.5269165 -1.4653625l0.06011963 -0.8806l0 -53.21505l-0.06011963 -0.8806l-0.5269165 -1.4653549l-0.9384155 -1.0562592l-1.3497925 -0.5292816l-0.8204956 -0.057785034z" fill-rule="nonzero"></path><path fill="#4fb0df" d="m701.7976 121.227196l-0.8204956 0.057777405l-1.3497925 0.52697754l-0.9383545 1.0562592l-0.5292969 1.4676666l0 0.8806l0 52.567886l0 0.82281494l0.46917725 1.4653625l0.9984741 1.1163483l1.5254517 0.58706665l0.9961548 0.057785034l20.06659 0l1.2897339 -0.41140747l0.9984741 -0.8806l0.52697754 -1.2897034l0 -0.82051086l0 -0.8806l-0.52697754 -1.2920074l-0.9984741 -0.8204956l-1.2897339 -0.41142273l-0.7626953 -0.057769775l-15.959473 0l0 -49.752747l-0.057739258 -0.8806l-0.46917725 -1.5254517l-0.99853516 -0.9984741l-1.3497314 -0.52697754l-0.82055664 -0.057777405z" fill-rule="nonzero"></path><path fill="#4fb0df" d="m755.4241 129.91069l11.5564575 32.5614l-23.290833 0l11.5563965 -32.5614zm-0.11785889 -8.450058l-0.9984741 0.06009674l-1.7011108 0.64484406l-1.2896729 1.2319183l-0.9384155 1.6433258l-0.3536377 0.9383774l-18.656677 49.69497l-0.58709717 1.7010956l-0.41137695 1.9946442l0.060058594 0.7026367l0.52697754 1.1163483l0.9384155 0.82051086l1.2919922 0.41140747l0.7026367 0.057785034l0.70495605 -0.057785034l1.1741333 -0.41140747l1.2319336 -1.2319183l0.46917725 -1.1140442l3.9314575 -10.7960205l27.867188 0l3.8737183 10.7960205l0.23345947 0.58706665l0.6448364 1.0539551l0.82281494 0.7049408l1.1741333 0.41140747l0.76275635 0.057785034l0.7025757 -0.057785034l1.2319336 -0.41140747l0.9384155 -0.82051086l0.58703613 -1.1163483l0.06011963 -0.7026367l-0.411438 -1.9368591l-0.6448364 -1.7588806l-18.598938 -49.69497l-0.3536377 -0.9383774l-0.9383545 -1.6433258l-1.2896729 -1.2319183l-1.7011108 -0.64484406l-1.0562744 -0.06009674z" fill-rule="nonzero"></path><path fill="#0093c6" d="m458.66418 96.99567l-1.5832214 0.057785034l-2.993103 0.58706665l-2.6972656 1.1741333l-2.466156 1.6410141l-2.110199 2.1125183l-1.6433411 2.406044l-1.1741333 2.7573624l-0.58706665 2.9931183l-0.057769775 1.5832291l0.057769775 1.5855408l0.58706665 2.9908066l1.1741333 2.7573624l1.6433411 2.4060516l2.110199 2.1125183l2.466156 1.6433258l2.6972656 1.1718216l2.993103 0.58706665l1.5832214 0.06008911l1.5855408 -0.06008911l2.9908142 -0.58706665l2.7573547 -1.1718216l2.4638367 -1.6433258l2.0547485 -2.1125183l1.6433105 -2.4060516l1.1718445 -2.7573624l0.64715576 -2.9908066l0.057769775 -1.5855408l-0.057769775 -1.5832291l-0.64715576 -2.9931183l-1.1718445 -2.7573624l-1.6433105 -2.406044l-2.0547485 -2.1125183l-2.4638367 -1.6410141l-2.7573547 -1.1741333l-2.9908142 -0.58706665l-1.5855408 -0.057785034z" fill-rule="nonzero"></path><path fill="#4fb0df" d="m430.61905 106.03049l-1.1140442 0.057785034l-2.1125183 0.41140747l-1.9345398 0.82050323l-1.7612 1.1741333l-1.4676514 1.4676666l-1.1140442 1.7011108l-0.8205261 1.9368515l-0.46917725 2.1102066l0 1.1163559l0 1.1140366l0.46917725 2.1125183l0.8205261 1.9368515l1.1140442 1.7588959l1.4676514 1.4676666l1.7612 1.1140366l1.9345398 0.82050323l2.1125183 0.4715042l2.2304077 0l2.1125183 -0.4715042l1.9345398 -0.82050323l1.7011108 -1.1140366l1.4676514 -1.4676666l1.1741333 -1.7588959l0.8205261 -1.9368515l0.41140747 -2.1125183l0.057769775 -1.1140366l-0.057769775 -1.1163559l-0.41140747 -2.1102066l-0.8205261 -1.9368515l-1.1741333 -1.7011108l-1.4676514 -1.4676666l-1.7011108 -1.1741333l-1.9345398 -0.82050323l-2.1125183 -0.41140747l-1.1163635 -0.057785034z" fill-rule="nonzero"></path><path fill="#4fb0df" d="m411.25974 121.63629l-1.5855713 0.06008911l-2.9907837 0.58706665l-2.699585 1.1718292l-2.4638367 1.6433182l-2.1125183 2.1125183l-1.6433105 2.406044l-1.1741333 2.75737l-0.58477783 2.990799l-0.06008911 1.5855408l0.06008911 1.5832367l0.58477783 2.9931183l1.1741333 2.7573547l1.6433105 2.4060516l2.1125183 2.1102142l2.4638367 1.6433105l2.699585 1.1741333l2.9907837 0.58706665l1.5855713 0.057785034l1.5832214 -0.057785034l2.993103 -0.58706665l2.7573853 -1.1741333l2.4638062 -1.6433105l2.0524292 -2.1102142l1.6433411 -2.4060516l1.1741333 -2.7573547l0.6448364 -2.9931183l0.057769775 -1.5832367l-0.057769775 -1.5855408l-0.6448364 -2.990799l-1.1741333 -2.75737l-1.6433411 -2.406044l-2.0524292 -2.1125183l-2.4638062 -1.6433182l-2.7573853 -1.1718292l-2.993103 -0.58706665l-1.5832214 -0.06008911z" fill-rule="nonzero"></path><path fill="#0093c6" d="m384.0351 134.54483l-2.1125183 0.46917725l-1.9345703 0.82051086l-1.7033997 1.1163483l-1.4653625 1.4653625l-1.1741333 1.7612l-0.8204956 1.9368591l-0.41140747 2.110199l-0.057800293 1.1163483l0.057800293 1.1140442l0.41140747 2.1125183l0.8204956 1.9368591l1.1741333 1.7010956l1.4653625 1.4653625l1.7033997 1.1741333l1.9345703 0.82051086l2.1125183 0.41140747l1.1140137 0.057785034l1.1163635 -0.057785034l2.1125183 -0.41140747l1.9345398 -0.82051086l1.7011108 -1.1741333l1.4676514 -1.4653625l1.1741333 -1.7010956l0.8205261 -1.9368591l0.41140747 -2.1125183l0.057769775 -1.1140442l-0.057769775 -1.1163483l-0.41140747 -2.110199l-0.8205261 -1.9368591l-1.1741333 -1.7612l-1.4676514 -1.4653625l-1.7011108 -1.1163483l-1.9345398 -0.82051086l-2.1125183 -0.46917725z" fill-rule="nonzero"></path><path fill="#0093c6" d="m442.94052 127.38677l-1.5832214 0.057777405l-2.9931335 0.64715576l-2.699585 1.1718292l-2.4638367 1.6433258l-2.1124878 2.0547333l-1.6410217 2.4638367l-1.1741333 2.7573547l-0.58706665 2.9908142l-0.057800293 1.5855408l0.057800293 1.5832214l0.58706665 2.9931183l1.1741333 2.6972656l1.6410217 2.4661407l2.1124878 2.1102142l2.4638367 1.6433258l2.699585 1.1741333l2.9931335 0.58706665l1.5832214 0.057785034l1.5855408 -0.057785034l2.9908142 -0.58706665l2.7573547 -1.1741333l2.4638367 -1.6433258l2.054718 -2.1102142l1.6433411 -2.4661407l1.171814 -2.6972656l0.64715576 -2.9931183l0.057800293 -1.5832214l-0.057800293 -1.5855408l-0.64715576 -2.9908142l-1.171814 -2.7573547l-1.6433411 -2.4638367l-2.054718 -2.0547333l-2.4638367 -1.6433258l-2.7573547 -1.1718292l-2.9908142 -0.64715576l-1.5855408 -0.057777405z" fill-rule="nonzero"></path><path fill="#4fb0df" d="m462.88922 130.14413l-1.1140442 0.057785034l-2.1125183 0.41140747l-1.9368286 0.82281494l-1.7011108 1.1718292l-1.4676819 1.4676666l-1.171814 1.7010956l-0.82281494 1.9368591l-0.40908813 2.1125183l-0.06011963 1.1140442l0.06011963 1.1140442l0.40908813 2.112503l0.82281494 1.9368591l1.171814 1.7011108l1.4676819 1.4653473l1.7011108 1.1741333l1.9368286 0.8228302l2.1125183 0.40908813l1.1140442 0.06010437l1.1140442 -0.06010437l2.1125183 -0.40908813l1.9368591 -0.8228302l1.7588806 -1.1741333l1.4676819 -1.4653473l1.1140442 -1.7011108l0.82281494 -1.9368591l0.46917725 -2.112503l0 -1.1140442l0 -1.1140442l-0.46917725 -2.1125183l-0.82281494 -1.9368591l-1.1140442 -1.7010956l-1.4676819 -1.4676666l-1.7588806 -1.1718292l-1.9368591 -0.82281494l-2.1125183 -0.41140747l-1.1140442 -0.057785034z" fill-rule="nonzero"></path><path fill="#4fb0df" d="m432.1445 156.25243l-1.1140442 0.06008911l-2.1125183 0.4091034l-1.9345398 0.82281494l-1.7034302 1.171814l-1.465332 1.4676666l-1.1741333 1.7011108l-0.8205261 1.9368591l-0.41140747 2.1125183l-0.057769775 1.1140442l0.057769775 1.1140289l0.41140747 2.1125183l0.8205261 1.9368591l1.1741333 1.7588959l1.465332 1.4676666l1.7034302 1.1140289l1.9345398 0.82281494l2.1125183 0.4691925l2.2304077 0l2.1125183 -0.4691925l1.9345398 -0.82281494l1.7612 -1.1140289l1.4653625 -1.4676666l1.116333 -1.7588959l0.8204956 -1.9368591l0.46920776 -2.1125183l0 -1.1140289l0 -1.1140442l-0.46920776 -2.1125183l-0.8204956 -1.9368591l-1.116333 -1.7011108l-1.4653625 -1.4676666l-1.7612 -1.171814l-1.9345398 -0.82281494l-2.1125183 -0.4091034l-1.1163635 -0.06008911z" fill-rule="nonzero"></path><path fill="#0093c6" d="m407.73734 97.22911l-2.1102295 0.4691925l-1.9368591 0.82281494l-1.7010803 1.1140366l-1.4676819 1.4676666l-1.1741333 1.7588959l-0.8204956 1.9368515l-0.41140747 2.1125183l-0.057800293 1.1140366l0.057800293 1.1140442l0.41140747 2.1125107l0.8204956 1.9368591l1.1741333 1.7011108l1.4676819 1.4676666l1.7010803 1.1718216l1.9368591 0.82281494l2.1102295 0.40909576l1.116333 0.06009674l1.1140442 -0.06009674l2.1125183 -0.40909576l1.9368591 -0.82281494l1.7011108 -1.1718216l1.465332 -1.4676666l1.1741333 -1.7011108l0.8205261 -1.9368591l0.41140747 -2.1125107l0.06008911 -1.1140442l-0.06008911 -1.1140366l-0.41140747 -2.1125183l-0.8205261 -1.9368515l-1.1741333 -1.7588959l-1.465332 -1.4676666l-1.7011108 -1.1140366l-1.9368591 -0.82281494l-2.1125183 -0.4691925z" fill-rule="nonzero"></path><path fill="#0093c6" d="m457.25662 157.36877l-1.5832214 0.057785034l-2.9931335 0.58706665l-2.699585 1.171814l-2.4638062 1.6433258l-2.1125183 2.1125183l-1.6410217 2.4638367l-1.1741333 2.6995697l-0.58706665 2.9931183l-0.057769775 1.5832367l0.057769775 1.5832367l0.58706665 2.993103l1.1741333 2.75737l1.6410217 2.4638367l2.1125183 2.0547333l2.4638062 1.6410065l2.699585 1.1741333l2.9931335 0.6448517l1.5832214 0.06008911l1.5832214 -0.06008911l2.9931335 -0.6448517l2.7573547 -1.1741333l2.4638367 -1.6410065l2.054718 -2.0547333l1.6410217 -2.4638367l1.1741333 -2.75737l0.64486694 -2.993103l0.06008911 -1.5832367l-0.06008911 -1.5832367l-0.64486694 -2.9931183l-1.1741333 -2.6995697l-1.6410217 -2.4638367l-2.054718 -2.1125183l-2.4638367 -1.6433258l-2.7573547 -1.171814l-2.9931335 -0.58706665l-1.5832214 -0.057785034z" fill-rule="nonzero"></path><path fill="#4fb0df" d="m434.8441 74.465256l-1.5832214 0.057777405l-2.9931335 0.58706665l-2.7573547 1.1741333l-2.4638367 1.6433258l-2.054718 2.1125183l-1.6410217 2.4037323l-1.1741333 2.75737l-0.64486694 2.9931107l-0.06008911 1.5832367l0.06008911 1.5855408l0.64486694 2.990799l1.1741333 2.7596817l1.6410217 2.4037323l2.054718 2.1125183l2.4638367 1.6433258l2.7573547 1.1741333l2.9931335 0.58475494l1.5832214 0.06008911l1.5832214 -0.06008911l2.9931335 -0.58475494l2.699585 -1.1741333l2.4638062 -1.6433258l2.1125183 -2.1125183l1.6433411 -2.4037323l1.171814 -2.7596817l0.58706665 -2.990799l0.057769775 -1.5855408l-0.057769775 -1.5832367l-0.58706665 -2.9931107l-1.171814 -2.75737l-1.6433411 -2.4037323l-2.1125183 -2.1125183l-2.4638062 -1.6433258l-2.699585 -1.1741333l-2.9931335 -0.58706665l-1.5832214 -0.057777405z" fill-rule="nonzero"></path><path fill="#0093c6" d="m413.54788 61.850254l-1.5855408 0.060092926l-2.9907837 0.58706665l-2.759674 1.1718216l-2.4037476 1.6433258l-2.1125183 2.1125107l-1.6433105 2.4638367l-1.1741333 2.6995773l-0.58477783 2.9908066l-0.06008911 1.5855408l0.06008911 1.5832291l0.58477783 2.9931183l1.1741333 2.7573624l1.6433105 2.4638367l2.1125183 2.0524216l2.4037476 1.6433258l2.759674 1.1741333l2.9907837 0.64484406l1.5855408 0.06009674l1.583252 -0.06009674l2.993103 -0.64484406l2.7573547 -1.1741333l2.4037476 -1.6433258l2.1125183 -2.0524216l1.6433105 -2.4638367l1.1741333 -2.7573624l0.58477783 -2.9931183l0.06008911 -1.5832291l-0.06008911 -1.5855408l-0.58477783 -2.9908066l-1.1741333 -2.6995773l-1.6433105 -2.4638367l-2.1125183 -2.1125107l-2.4037476 -1.6433258l-2.7573547 -1.1718216l-2.993103 -0.58706665l-1.583252 -0.060092926z" fill-rule="nonzero"></path><path fill="#4fb0df" d="m460.8345 73.29112l-2.110199 0.46918488l-1.9368591 0.8228226l-1.7011108 1.1140366l-1.4676819 1.4676666l-1.1741333 1.7588882l-0.8204956 1.9368591l-0.41140747 2.1125183l-0.057800293 1.1140366l0.057800293 1.1140442l0.41140747 2.1125107l0.8204956 1.9368591l1.1741333 1.7011108l1.4676819 1.4676666l1.7011108 1.1718216l1.9368591 0.82281494l2.110199 0.41140747l1.116333 0.057785034l1.1140442 -0.057785034l2.1125183 -0.41140747l1.9368591 -0.82281494l1.7588806 -1.1718216l1.4676819 -1.4676666l1.1140442 -1.7011108l0.8204956 -1.9368591l0.47149658 -2.1125107l0 -1.1140442l0 -1.1140366l-0.47149658 -2.1125183l-0.8204956 -1.9368591l-1.1140442 -1.7588882l-1.4676819 -1.4676666l-1.7588806 -1.1140366l-1.9368591 -0.8228226l-2.1125183 -0.46918488z" fill-rule="nonzero"></path><path fill="#0093c6" d="m430.38562 176.37679l-1.5855408 0.06010437l-2.9908142 0.5847473l-2.7573547 1.1741333l-2.4638367 1.6433258l-2.0547485 2.1125183l-1.6433105 2.4638214l-1.171814 2.699585l-0.64486694 2.9908142l-0.06008911 1.5855408l0.06008911 1.5832214l0.64486694 2.9931183l1.171814 2.75737l1.6433105 2.4638214l2.0547485 2.0524292l2.4638367 1.6433258l2.7573547 1.1741333l2.9908142 0.6448517l1.5855408 0.057785034l1.5832214 -0.057785034l2.993103 -0.6448517l2.699585 -1.1741333l2.4638367 -1.6433258l2.1125183 -2.0524292l1.6410217 -2.4638214l1.1741333 -2.75737l0.58706665 -2.9931183l0.057769775 -1.5832214l-0.057769775 -1.5855408l-0.58706665 -2.9908142l-1.1741333 -2.699585l-1.6410217 -2.4638214l-2.1125183 -2.1125183l-2.4638367 -1.6433258l-2.699585 -1.1741333l-2.993103 -0.5847473l-1.5832214 -0.06010437z" fill-rule="nonzero"></path><path fill="#4fb0df" d="m432.1445 51.99493l-1.1140442 0.05778122l-2.1125183 0.41140747l-1.9345398 0.82050705l-1.7034302 1.1741333l-1.465332 1.4676666l-1.1741333 1.701107l-0.8205261 1.9345474l-0.41140747 2.1125145l-0.057769775 1.1163521l0.057769775 1.1140404l0.41140747 2.1125145l0.8205261 1.9345474l1.1741333 1.7034149l1.465332 1.4653549l1.7034302 1.1741333l1.9345398 0.82051086l2.1125183 0.41140747l1.1140442 0.057785034l1.1163635 -0.057785034l2.1125183 -0.41140747l1.9345398 -0.82051086l1.7612 -1.1741333l1.4653625 -1.4653549l1.116333 -1.7034149l0.8204956 -1.9345474l0.46920776 -2.1125145l0 -1.1140404l0 -1.1163521l-0.46920776 -2.1125145l-0.8204956 -1.9345474l-1.116333 -1.701107l-1.4653625 -1.4676666l-1.7612 -1.1741333l-1.9345398 -0.82050705l-2.1125183 -0.41140747l-1.1163635 -0.05778122z" fill-rule="nonzero"></path><path fill="#4fb0df" d="m375.58734 156.3703l-2.1125183 0.4691925l-1.9368591 0.8204956l-1.7011108 1.1163635l-1.4676819 1.4653473l-1.171814 1.7612l-0.82281494 1.9368591l-0.40908813 2.110199l-0.06008911 1.1163635l0.06008911 1.1140289l0.40908813 2.1125183l0.82281494 1.9368591l1.171814 1.7011108l1.4676819 1.4653473l1.7011108 1.1741333l1.9368591 0.82051086l2.1125183 0.41140747l1.1140442 0.06008911l1.1140137 -0.06008911l2.1125183 -0.41140747l1.9368591 -0.82051086l1.7011108 -1.1741333l1.4676819 -1.4653473l1.171814 -1.7011108l0.82281494 -1.9368591l0.40908813 -2.1125183l0.06008911 -1.1140289l-0.06008911 -1.1163635l-0.40908813 -2.110199l-0.82281494 -1.9368591l-1.171814 -1.7612l-1.4676819 -1.4653473l-1.7011108 -1.1163635l-1.9368591 -0.8204956l-2.1125183 -0.4691925z" fill-rule="nonzero"></path><path fill="#0093c6" d="m384.21075 105.44342l-1.583252 0.06009674l-2.993103 0.58475494l-2.7573853 1.1741333l-2.4060364 1.6433182l-2.110199 2.1125183l-1.6433411 2.40374l-1.1741333 2.759674l-0.58706665 2.9908066l-0.057769775 1.5855408l0.057769775 1.5832291l0.58706665 2.9931183l1.1741333 2.7573547l1.6433411 2.4037476l2.110199 2.1125183l2.4060364 1.6433258l2.7573853 1.1741333l2.993103 0.58706665l1.583252 0.057769775l1.5855408 -0.057769775l2.9907837 -0.58706665l2.7573853 -1.1741333l2.4060364 -1.6433258l2.1125183 -2.1125183l1.6433105 -2.4037476l1.1718445 -2.7573547l0.58706665 -2.9931183l0.06008911 -1.5832291l-0.06008911 -1.5855408l-0.58706665 -2.9908066l-1.1718445 -2.759674l-1.6433105 -2.40374l-2.1125183 -2.1125183l-2.4060364 -1.6433182l-2.7573853 -1.1741333l-2.9907837 -0.58475494l-1.5855408 -0.06009674z" fill-rule="nonzero"></path><path fill="#4fb0df" d="m454.67493 181.83374l-1.583252 0.057785034l-2.993103 0.64715576l-2.699585 1.171814l-2.4638367 1.6433258l-2.1125183 2.0524292l-1.6409912 2.4661407l-1.1741333 2.75737l-0.58706665 2.990799l-0.057800293 1.5855408l0.057800293 1.5832367l0.58706665 2.993103l1.1741333 2.697281l1.6409912 2.4661407l2.1125183 2.110199l2.4638367 1.6433258l2.699585 1.1741333l2.993103 0.58706665l1.583252 0.057785034l1.5832214 -0.057785034l2.993103 -0.58706665l2.7573853 -1.1741333l2.4638367 -1.6433258l2.054718 -2.110199l1.6433411 -2.4661407l1.171814 -2.697281l0.6448364 -2.993103l0.06008911 -1.5832367l-0.06008911 -1.5855408l-0.6448364 -2.990799l-1.171814 -2.75737l-1.6433411 -2.4661407l-2.054718 -2.0524292l-2.4638367 -1.6433258l-2.7573853 -1.171814l-2.993103 -0.64715576l-1.5832214 -0.057785034z" fill-rule="nonzero"></path><path fill="#4fb0df" d="m391.4289 84.84986l-1.1163635 0.06009674l-2.1125183 0.40909576l-1.9345398 0.82281494l-1.7612 1.1718216l-1.4653625 1.4676666l-1.116333 1.7011108l-0.8205261 1.9368591l-0.46917725 2.1125107l0 1.1140442l0 1.1140366l0.46917725 2.1125183l0.8205261 1.9368515l1.116333 1.7011108l1.4653625 1.4676666l1.7612 1.1718216l1.9345398 0.82281494l2.1125183 0.4091034l1.1163635 0.06008911l1.1140442 -0.06008911l2.1124878 -0.4091034l1.9345703 -0.82281494l1.7033997 -1.1718216l1.4653625 -1.4676666l1.1741333 -1.7011108l0.8204956 -1.9368515l0.41140747 -2.1125183l0.057800293 -1.1140366l-0.057800293 -1.1140442l-0.41140747 -2.1125107l-0.8204956 -1.9368591l-1.1741333 -1.7011108l-1.4653625 -1.4676666l-1.7033997 -1.1718216l-1.9345703 -0.82281494l-2.1124878 -0.40909576l-1.1140442 -0.06009674z" fill-rule="nonzero"></path><path fill="#0093c6" d="m382.39175 178.31364l-1.1140442 0.057785034l-2.1125183 0.41140747l-1.9368591 0.82051086l-1.7010803 1.1741333l-1.4653625 1.4676666l-1.1741333 1.7011108l-0.8205261 1.9345398l-0.41140747 2.1125183l-0.057769775 1.1163483l0.057769775 1.1140442l0.41140747 2.1125183l0.8205261 1.9345398l1.1741333 1.7612l1.4653625 1.4676666l1.7010803 1.1140442l1.9368591 0.8204956l2.1125183 0.4691925l2.2304077 0l2.110199 -0.4691925l1.9368591 -0.8204956l1.7612 -1.1140442l1.4653625 -1.4676666l1.116333 -1.7612l0.8205261 -1.9345398l0.46917725 -2.1125183l0 -1.1140442l0 -1.1163483l-0.46917725 -2.1125183l-0.8205261 -1.9345398l-1.116333 -1.7011108l-1.4653625 -1.4676666l-1.7612 -1.1741333l-1.9368591 -0.82051086l-2.110199 -0.41140747l-1.1163635 -0.057785034z" fill-rule="nonzero"></path><path fill="#4fb0df" d="m404.3351 152.26314l-1.583252 0.057785034l-2.993103 0.64715576l-2.7573547 1.1718292l-2.4638367 1.6433258l-2.0547485 2.0547333l-1.6409912 2.4638214l-1.1741333 2.75737l-0.64486694 2.990799l-0.06008911 1.585556l0.06008911 1.5832214l0.64486694 2.9931183l1.1741333 2.699585l1.6409912 2.4638214l2.0547485 2.1125183l2.4638367 1.6410217l2.7573547 1.1741333l2.993103 0.58706665l1.583252 0.057769775l1.5855408 -0.057769775l2.9908142 -0.58706665l2.6995544 -1.1741333l2.4638367 -1.6410217l2.1125183 -2.1125183l1.6433411 -2.4638214l1.171814 -2.699585l0.58706665 -2.9931183l0.06008911 -1.5832214l-0.06008911 -1.585556l-0.58706665 -2.990799l-1.171814 -2.75737l-1.6433411 -2.4638214l-2.1125183 -2.0547333l-2.4638367 -1.6433258l-2.6995544 -1.1718292l-2.9908142 -0.64715576l-1.5855408 -0.057785034z" fill-rule="nonzero"></path><path fill="#0093c6" d="m453.26733 48.650497l-1.5855408 0.057785034l-2.9907837 0.58706665l-2.699585 1.1741333l-2.4638367 1.643322l-2.1125183 2.1102066l-1.6433105 2.4060478l-1.1718445 2.7573624l-0.58706665 2.9931183l-0.06008911 1.5832291l0.06008911 1.5855408l0.58706665 2.9908066l1.1718445 2.7573624l1.6433105 2.4060516l2.1125183 2.1125107l2.4638367 1.6433258l2.699585 1.1718216l2.9907837 0.58706665l1.5855408 0.06009674l1.583252 -0.06009674l2.993103 -0.58706665l2.7573547 -1.1718216l2.4638367 -1.6433258l2.0547485 -2.1125107l1.6409912 -2.4060516l1.1741333 -2.7573624l0.64486694 -2.9908066l0.06008911 -1.5855408l-0.06008911 -1.5832291l-0.64486694 -2.9931183l-1.1741333 -2.7573624l-1.6409912 -2.4060478l-2.0547485 -2.1102066l-2.4638367 -1.643322l-2.7573547 -1.1741333l-2.993103 -0.58706665l-1.583252 -0.057785034z" fill-rule="nonzero"></path><path fill="#4fb0df" d="m460.42538 214.1617l-1.116333 0.057785034l-2.110199 0.41140747l-1.9368591 0.8204956l-1.7612 1.1741333l-1.4653625 1.4676666l-1.1163635 1.7011108l-0.8204956 1.934555l-0.46917725 2.112503l0 1.1163635l0 1.1140289l0.46917725 2.1125183l0.8204956 1.934555l1.1163635 1.7034149l1.4653625 1.4653473l1.7612 1.1741333l1.9368591 0.82051086l2.110199 0.41140747l1.116333 0.057785034l1.1140442 -0.057785034l2.1125183 -0.41140747l1.9368591 -0.82051086l1.7011108 -1.1741333l1.4653625 -1.4653473l1.1741333 -1.7034149l0.8204956 -1.934555l0.41140747 -2.1125183l0.06008911 -1.1140289l-0.06008911 -1.1163635l-0.41140747 -2.112503l-0.8204956 -1.934555l-1.1741333 -1.7011108l-1.4653625 -1.4676666l-1.7011108 -1.1741333l-1.9368591 -0.8204956l-2.1125183 -0.41140747l-1.1140442 -0.057785034z" fill-rule="nonzero"></path><path fill="#4fb0df" d="m430.50348 205.8896l-1.5855408 0.057785034l-2.9907837 0.58706665l-2.699585 1.1741333l-2.4638367 1.6410065l-2.1125183 2.1125183l-1.6433105 2.4060516l-1.1718445 2.7573547l-0.58706665 2.9931183l-0.06008911 1.5832367l0.06008911 1.5832367l0.58706665 2.993103l1.1718445 2.75737l1.6433105 2.4060516l2.1125183 2.1125183l2.4638367 1.6410065l2.699585 1.1741333l2.9907837 0.58706665l1.5855408 0.057785034l1.583252 -0.057785034l2.993103 -0.58706665l2.7573547 -1.1741333l2.4638367 -1.6410065l2.0524292 -2.1125183l1.6433105 -2.4060516l1.1741333 -2.75737l0.64486694 -2.993103l0.057769775 -1.5832367l-0.057769775 -1.5832367l-0.64486694 -2.9931183l-1.1741333 -2.7573547l-1.6433105 -2.4060516l-2.0524292 -2.1125183l-2.4638367 -1.6410065l-2.7573547 -1.1741333l-2.993103 -0.58706665l-1.583252 -0.057785034z" fill-rule="nonzero"></path><path fill="#4fb0df" d="m403.33893 185.70514l-2.1124878 0.4691925l-1.9368591 0.82281494l-1.7011108 1.1140442l-1.4676819 1.4676666l-1.171814 1.7588806l-0.82281494 1.9368591l-0.40908813 2.1125183l-0.06011963 1.1140442l0.06011963 1.1140442l0.40908813 2.112503l0.82281494 1.9368591l1.171814 1.7011108l1.4676819 1.4676666l1.7011108 1.1718292l1.9368591 0.82281494l2.1124878 0.40908813l1.1140442 0.06010437l1.1140442 -0.06010437l2.1125183 -0.40908813l1.9368591 -0.82281494l1.7588806 -1.1718292l1.4676819 -1.4676666l1.1140442 -1.7011108l0.82281494 -1.9368591l0.46917725 -2.112503l0 -1.1140442l0 -1.1140442l-0.46917725 -2.1125183l-0.82281494 -1.9368591l-1.1140442 -1.7588806l-1.4676819 -1.4676666l-1.7588806 -1.1140442l-1.9368591 -0.82281494l-2.1125183 -0.4691925z" fill-rule="nonzero"></path><path fill="#0093c6" d="m412.6673 208.11768l-1.5855408 0.06010437l-2.9908142 0.6448517l-2.699585 1.1741333l-2.4638367 1.6410065l-2.1124878 2.0547333l-1.6433411 2.4638367l-1.171814 2.7573547l-0.58706665 2.9931183l-0.06008911 1.5832367l0.06008911 1.5832214l0.58706665 2.9931183l1.171814 2.699585l1.6433411 2.4638367l2.1124878 2.112503l2.4638367 1.6410217l2.699585 1.1741333l2.9908142 0.58706665l1.5855408 0.057785034l1.5832214 -0.057785034l2.9931335 -0.58706665l2.7573547 -1.1741333l2.4638367 -1.6410217l2.0523987 -2.112503l1.6433411 -2.4638367l1.1741333 -2.699585l0.6448364 -2.9931183l0.06008911 -1.5832214l-0.06008911 -1.5832367l-0.6448364 -2.9931183l-1.1741333 -2.7573547l-1.6433411 -2.4638367l-2.0523987 -2.0547333l-2.4638367 -1.6410065l-2.7573547 -1.1741333l-2.9931335 -0.6448517l-1.5832214 -0.06010437z" fill-rule="nonzero"></path><path fill="#4fb0df" d="m438.42426 233.34769l-2.1125183 0.4691925l-1.9368591 0.8204956l-1.7612 1.1140442l-1.465332 1.4676666l-1.1140442 1.7612l-0.82281494 1.9345398l-0.46920776 2.1125183l0 1.1140442l0 1.1163483l0.46920776 2.1125183l0.82281494 1.9345398l1.1140442 1.7011108l1.465332 1.4676666l1.7612 1.1741333l1.9368591 0.82051086l2.1125183 0.41140747l1.1140442 0.057785034l1.1140442 -0.057785034l2.1125183 -0.41140747l1.9368591 -0.82051086l1.7011108 -1.1741333l1.4653625 -1.4676666l1.1741333 -1.7011108l0.82281494 -1.9345398l0.40908813 -2.1125183l0.06008911 -1.1163483l-0.06008911 -1.1140442l-0.40908813 -2.1125183l-0.82281494 -1.9345398l-1.1741333 -1.7612l-1.4653625 -1.4676666l-1.7011108 -1.1140442l-1.9368591 -0.8204956l-2.1125183 -0.4691925z" fill-rule="nonzero"></path><path fill="#4fb0df" d="m387.8487 202.3695l-1.4676514 0.29122925l-1.9946594 0.9406891l-2.0523987 2.0524292l-0.938385 1.9946442l-0.29354858 1.4676666l0 0.7627106l0 0.76272583l0.29354858 1.4653625l0.938385 1.9946442l2.0523987 1.9969482l1.9946594 0.938385l1.4676514 0.29353333l0.76272583 0.057769775l0.76272583 -0.057769775l1.4676819 -0.29353333l1.9946289 -0.938385l1.9946289 -1.9969482l0.938385 -1.9946442l0.29354858 -1.4653625l0.057769775 -0.76272583l-0.057769775 -0.7627106l-0.29354858 -1.4676666l-0.938385 -1.9946442l-1.9946289 -2.0524292l-1.9946289 -0.9406891l-1.4676819 -0.29122925z" fill-rule="nonzero"></path><path fill="#0093c6" d="m459.01782 235.04878l-1.4676514 0.35131836l-1.9946594 0.8806l-2.054718 2.0524292l-0.8782959 1.9946289l-0.3536377 1.4676666l0 0.76272583l0 0.76272583l0.3536377 1.4676666l0.8782959 1.9946442l2.054718 2.052414l1.9946594 0.8806l1.4676514 0.35131836l1.5254517 0l1.4653625 -0.35131836l1.9946289 -0.8806l2.0547485 -2.052414l0.8782654 -1.9946442l0.3536377 -1.4676666l0 -0.76272583l0 -0.76272583l-0.3536377 -1.4676666l-0.8782654 -1.9946289l-2.0547485 -2.0524292l-1.9946289 -0.8806l-1.4653625 -0.35131836z" fill-rule="nonzero"></path><path fill="#4fb0df" d="m498.09244 53.81391l10.030975 12.554909l-0.52697754 0.7049408l-0.17565918 0.82050323l-21.180634 0l-0.23574829 -0.82050323l-0.46917725 -0.7049408l9.915405 -12.554909l0.64715576 0.29353333l0.7026367 0.05778122l0.70495605 -0.05778122l0.58706665 -0.29353333zm26.635223 0l9.915466 12.554909l-0.52697754 0.7049408l-0.17565918 0.82050323l-21.298523 0l-0.17565918 -0.82050323l-0.52926636 -0.7049408l10.033295 -12.554909l0.70495605 0.29353333l0.7025757 0.05778122l0.70495605 -0.05778122l0.6448364 -0.29353333zm-17.306885 14.785294l0.17565918 0.82051086l0.52697754 0.6448517l-10.030975 12.614998l-0.58706665 -0.35131836l-0.70495605 -0.06008911l-0.7026367 0.06008911l-0.64715576 0.35131836l-9.915405 -12.554909l0.46917725 -0.7049408l0.23574829 -0.82051086zm26.519714 0.057785034l0.17565918 0.82051086l0.52697754 0.64715576l-9.915466 12.612686l-0.6448364 -0.35131073l-0.70495605 -0.057785034l-0.7025757 0.11556244l-0.64489746 0.29353333l-10.093353 -12.612686l0.52926636 -0.64715576l0.17565918 -0.82051086zm-22.530426 1.8767624l10.033295 12.6150055l-0.5292969 0.64484406l-0.17565918 0.8228226l-21.296173 0l-0.17797852 -0.8228226l-0.52697754 -0.64484406l10.033295 -12.6150055l0.58706665 0.29353333l0.7026367 0.117881775l0.70492554 -0.117881775l0.64486694 -0.29353333zm9.328339 14.785301l0.17565918 0.82281494l0.5292969 0.6448517l-10.033295 12.614998l-0.64486694 -0.29353333l-0.70492554 -0.117874146l-0.7026367 0.117874146l-0.58706665 0.29353333l-10.033295 -12.614998l0.52697754 -0.6448517l0.17797852 -0.82281494zm-22.645966 1.9368591l10.030975 12.614998l-0.52697754 0.64484406l-0.17565918 0.82051086l-21.180634 0l-0.23574829 -0.82051086l-0.46917725 -0.64484406l9.915405 -12.614998l0.64715576 0.35131073l0.7026367 0.06009674l0.70495605 -0.06009674l0.58706665 -0.35131073zm26.519684 0l10.031006 12.614998l-0.52697754 0.64484406l-0.17565918 0.82051086l-21.298523 0l-0.17565918 -0.82051086l-0.52926636 -0.64484406l10.033295 -12.614998l0.6448364 0.35131073l0.70495605 0.06009674l0.70495605 -0.06009674l0.58703613 -0.35131073zm26.459595 0l10.033325 12.614998l-0.5292969 0.64484406l-0.17565918 0.82051086l-21.296204 0l-0.17797852 -0.82051086l-0.52697754 -0.64484406l9.915466 -12.614998l0.704895 0.35131073l0.7026367 0.06009674l0.70495605 -0.06009674l0.6448364 -0.35131073zm-43.65094 14.785294l0.17565918 0.82051086l0.52697754 0.7049408l-10.030975 12.554901l-0.58706665 -0.29353333l-0.70495605 -0.057777405l-0.7026367 0.057777405l-0.64715576 0.29353333l-9.915405 -12.554901l0.46917725 -0.7049408l0.23574829 -0.82051086zm26.519714 0l0.17565918 0.82051086l0.52697754 0.7049408l-9.915466 12.554901l-0.6448364 -0.29353333l-0.70495605 -0.057777405l-0.7025757 0.057777405l-0.64489746 0.29353333l-10.093353 -12.554901l0.52926636 -0.7049408l0.17565918 -0.82051086zm26.519653 0l0.17565918 0.82051086l0.52697754 0.7049408l-10.091064 12.554901l-0.6448364 -0.29353333l-0.70495605 -0.057777405l-0.7026367 0.057777405l-0.58703613 0.29353333l-9.975525 -12.554901l0.5292969 -0.7049408l0.17565918 -0.82051086zm-49.05008 1.8767624l10.091095 12.6150055l-0.52697754 0.64484406l-0.17565918 0.82051086l-21.356293 0l-0.17797852 -0.82051086l-0.52697754 -0.64484406l10.033295 -12.6150055l0.58706665 0.35131836l0.7026367 0.06009674l0.70492554 -0.06009674l0.64486694 -0.35131836zm26.519684 0.117881775l9.915405 12.554901l-0.46917725 0.7049408l-0.23571777 0.82051086l-21.120544 0l-0.17565918 -0.82051086l-0.5292969 -0.7049408l9.975525 -12.554901l0.5847168 0.29353333l0.70495605 0.057777405l0.70495605 -0.057777405l0.6448364 -0.29353333zm-17.131226 14.667419l0.17565918 0.82050323l0.52697754 0.7049408l-10.033325 12.554916l-0.5847473 -0.29353333l-0.70495605 -0.057785034l-0.70492554 0.057785034l-0.64486694 0.29353333l-10.148834 -12.497131l0.46917725 -0.6448517l0.23342896 -0.82050323l21.416412 0l0 -0.117874146zm26.341736 0.117874146l0.23571777 0.82050323l0.46917725 0.6448517l-9.915405 12.6150055l-0.6448364 -0.35131836l-0.70495605 -0.06008911l-0.70495605 0.06008911l-0.5847168 0.35131836l-9.975525 -12.6150055l0.5292969 -0.6448517l0.17565918 -0.82050323zm-49.04782 1.8767624l10.030975 12.554901l-0.52697754 0.70495605l-0.17565918 0.8204956l-21.180634 0l-0.23574829 -0.87828064l-0.46917725 -0.647171l9.915405 -12.554901l0.64715576 0.29353333l0.7026367 0.057785034l0.70495605 -0.057785034l0.58706665 -0.29353333zm26.519684 0l9.973206 12.554901l-0.46917725 0.70495605l-0.17565918 0.8204956l-21.298523 0l-0.17565918 -0.8204956l-0.52926636 -0.70495605l10.033295 -12.554901l0.6448364 0.29353333l0.70495605 0.057785034l0.70495605 -0.057785034l0.58703613 -0.29353333zm26.459595 0l10.033325 12.554901l-0.46923828 0.70495605l-0.17565918 0.8204956l-21.298462 0l-0.17565918 -0.8204956l-0.5292969 -0.70495605l9.975525 -12.554901l0.58703613 0.29353333l0.7026367 0.057785034l0.70495605 -0.057785034l0.6448364 -0.29353333zm26.577515 0l9.975464 12.554901l-0.52923584 0.70495605l-0.17565918 0.8204956l-21.238403 0l-0.17565918 -0.8204956l-0.5292969 -0.70495605l10.033264 -12.554901l0.6448364 0.29353333l0.70495605 0.057785034l0.7026367 -0.057785034l0.58709717 -0.29353333zm-70.228455 14.785294l0.17565918 0.82051086l0.52697754 0.64715576l-10.030975 12.612686l-0.58706665 -0.3513031l-0.70495605 -0.057785034l-0.7026367 0.057785034l-0.64715576 0.3513031l-9.915405 -12.612686l0.46917725 -0.64715576l0.23574829 -0.82051086zm26.519714 0l0.17565918 0.82051086l0.52697754 0.64715576l-9.915466 12.612686l-0.6448364 -0.3513031l-0.70495605 -0.057785034l-0.7025757 0.057785034l-0.64489746 0.3513031l-10.093353 -12.612686l0.52926636 -0.64715576l0.17565918 -0.82051086zm26.519653 0l0.17565918 0.82051086l0.52697754 0.64715576l-10.033264 12.612686l-0.58477783 -0.3513031l-0.70495605 -0.057785034l-0.704895 0.057785034l-0.64489746 0.3513031l-9.915405 -12.612686l0.46923828 -0.64715576l0.23571777 -0.82051086zm26.459656 0l0.17565918 0.82051086l0.52923584 0.64715576l-9.975464 12.612686l-0.58709717 -0.3513031l-0.7026367 -0.057785034l-0.70495605 0.057785034l-0.6448364 0.3513031l-9.09491 -11.380768l-0.9383545 -1.2319183l0.5292969 -0.64715576l0.17565918 -0.82051086zm-75.567535 1.9368591l9.973236 12.612686l-0.46923828 0.647171l-0.23571777 0.8204956l-21.178314 0l-0.17797852 -0.8204956l-0.52697754 -0.647171l9.915405 -12.612686l0.64486694 0.29353333l0.70492554 0.11557007l0.7026367 -0.11557007l0.64715576 -0.29353333zm26.577484 0l9.915405 12.612686l-0.46917725 0.647171l-0.23571777 0.8204956l-21.120544 0l-0.17565918 -0.8204956l-0.5292969 -0.647171l9.975525 -12.612686l0.5847168 0.29353333l0.70495605 0.11557007l0.70495605 -0.11557007l0.6448364 -0.29353333zm26.459595 0l0.5292969 0.6448517l9.446228 11.967834l-0.46917725 0.647171l-0.23577881 0.8204956l-21.238403 0l-0.23571777 -0.8204956l-0.46923828 -0.647171l9.975525 -12.612686l0.6448364 0.29353333l0.7026367 0.11557007l0.70495605 -0.11557007l0.6448364 -0.29353333zm-43.65094 14.785294l0.17565918 0.82051086l0.5292969 0.6448517l-10.033295 12.6150055l-0.64486694 -0.29353333l-0.70492554 -0.117874146l-0.7026367 0.117874146l-0.58706665 0.29353333l-10.033295 -12.6150055l0.52697754 -0.6448517l0.17797852 -0.82051086zm26.344055 0l0.17565918 0.82051086l0.52697754 0.6448517l-9.855347 12.6150055l-0.6448364 -0.29353333l-0.70495605 -0.117874146l-0.70495605 0.117874146l-0.5847168 0.29353333l-10.033325 -12.6150055l0.52697754 -0.6448517l0.17565918 -0.82051086zm26.695374 -0.06008911l0.17559814 0.82281494l0.52697754 0.6448517l-10.030945 12.672791l-0.64715576 -0.29353333l-0.7026367 -0.117874146l-0.70495605 0.117874146l-0.58703613 0.29353333l-10.031006 -12.6150055l0 -0.057785034l0.52697754 -0.6448517l0.17565918 -0.82281494zm-75.685394 1.9368591l10.030975 12.6150055l-0.52697754 0.6448517l-0.17565918 0.8204956l-21.180634 0l-0.23574829 -0.87828064l-0.46917725 -0.58706665l9.915405 -12.6150055l0.64715576 0.29353333l0.7026367 0.117874146l0.70495605 -0.117874146l0.58706665 -0.29353333zm26.519684 0.057785034l9.973206 12.6150055l-0.46917725 0.58706665l-0.17565918 0.8806l-21.298523 0l-0.17565918 -0.8228302l-0.52926636 -0.6448364l10.033295 -12.6150055l0.6448364 0.35362244l0.70495605 0.057785034l0.70495605 -0.057785034l0.58703613 -0.35362244zm26.459595 0l10.033325 12.6150055l-0.5292969 0.6448364l-0.17565918 0.8228302l-21.238403 0l-0.17565918 -0.8228302l-0.5292969 -0.6448364l9.975525 -12.6150055l0.58703613 0.35362244l0.7026367 0.057785034l0.70495605 -0.057785034l0.6448364 -0.35362244zm26.577515 0l9.975464 12.6150055l-0.29351807 0.29353333l-0.3536377 0.7627106l-0.057739258 0.41142273l-21.238403 0l-0.17565918 -0.8228302l-0.5292969 -0.6448364l10.033264 -12.6150055l0.6448364 0.35362244l0.70495605 0.057785034l0.7026367 -0.057785034l0.58709717 -0.35362244zm-70.228455 14.727509l0.17565918 0.82051086l0.52697754 0.64715576l-10.030975 12.612686l-0.58706665 -0.29353333l-0.70495605 -0.11555481l-0.7026367 0.11555481l-0.70492554 0.29353333l-9.973206 -12.612686l0.35131836 -0.23574829l0.41140747 -0.76272583l0.057769775 -0.4691925zm26.519714 0.057785034l0.17565918 0.82281494l0.52697754 0.7026367l-9.915466 12.55722l-0.6448364 -0.29353333l-0.70495605 -0.06010437l-0.7025757 0.06010437l-0.64489746 0.29353333l-10.093353 -12.55722l0.52926636 -0.7026367l0.17565918 -0.82281494zm26.459595 0l0.17565918 0.82281494l0.5292969 0.7026367l-10.033325 12.55722l-0.58703613 -0.29353333l-0.76275635 -0.06010437l-0.7026367 0.06010437l-0.704895 0.29353333l-9.915466 -12.55722l0.52697754 -0.7026367l0.17797852 -0.82281494zm26.519714 0l0.17565918 0.82281494l0.52923584 0.7026367l-9.975464 12.55722l-0.58709717 -0.29353333l-0.7026367 -0.06010437l-0.70495605 0.06010437l-0.6448364 0.29353333l-10.033264 -12.55722l0.5292969 -0.7026367l0.17565918 -0.82281494zm-75.509735 1.8790741l10.033295 12.612686l-0.5292969 0.647171l-0.17565918 0.8204956l-21.296173 0l-0.17797852 -0.8204956l-0.52697754 -0.647171l9.915405 -12.612686l0.64486694 0.35131836l0.70492554 0.057785034l0.7026367 -0.057785034l0.70495605 -0.35131836zm26.519684 0l9.915405 12.612686l-0.46917725 0.647171l-0.23571777 0.8204956l-21.120544 0l-0.17565918 -0.8204956l-0.5292969 -0.647171l9.975525 -12.612686l0.5847168 0.35131836l0.70495605 0.057785034l0.70495605 -0.057785034l0.6448364 -0.35131836zm-17.131226 14.785294l0.17565918 0.82051086l0.52697754 0.7049408l-10.033325 12.554916l-0.5847473 -0.29353333l-0.82281494 -0.057785034l-0.76272583 0.057785034l-0.64486694 0.29353333l-9.915405 -12.497131l0.52697754 -0.6448517l0.17797852 -0.938385zm26.341736 0l0.23571777 0.82051086l0.46917725 0.7049408l-9.915405 12.554916l-0.6448364 -0.29353333l-0.70495605 -0.057785034l-0.70495605 0.057785034l-0.7026367 0.29353333l-9.857605 -12.554916l0.5292969 -0.7049408l0.17565918 -0.82051086zm-48.93228 1.9946442l9.975525 12.554916l-0.46917725 0.7049408l-0.23577881 0.8204956l-21.180603 0l-0.17565918 -0.93836975l-0.52697754 -0.6448517l9.855316 -12.497131l0.64715576 0.29353333l0.76272583 0.057785034l0.7026367 -0.057785034l0.6448364 -0.29353333zm26.579803 0l9.915405 12.554916l-0.46917725 0.7049408l-0.23577881 0.8204956l-21.238403 0l-0.23571777 -0.8204956l-0.46917725 -0.7049408l9.975464 -12.554916l0.64489746 0.29353333l0.7626953 0.057785034l0.7026367 -0.057785034l0.64715576 -0.29353333zm26.341736 -0.117874146l10.033264 12.6150055l-0.52697754 0.70262146l-0.17565918 0.8806l-21.298462 0l-0.17565918 -0.8806l-0.5292969 -0.70262146l9.975525 -12.6150055l0.58703613 0.35131836l0.8204956 0.06008911l0.70495605 -0.06008911l0.58477783 -0.35131836zm-43.65097 14.903168l0.23577881 0.82051086l0.46917725 0.6448517l-9.975525 12.6150055l-0.6448364 -0.35131836l-0.7026367 -0.06010437l-0.70492554 0.06010437l-0.70495605 0.35131836l-9.915405 -12.6150055l0.52926636 -0.6448517l0.23345947 -0.82051086zm26.461945 0l0.17565918 0.82051086l0.52697754 0.6448517l-9.915466 12.6150055l-0.58703613 -0.35131836l-0.76275635 -0.06010437l-0.7626953 0.06010437l-0.6448364 0.35131836l-10.033295 -12.6150055l0.52926636 -0.6448517l0.17565918 -0.82051086zm26.519653 0l0.17565918 0.82051086l0.52697754 0.6448517l-10.033264 12.6150055l-0.58477783 -0.35131836l-0.70495605 -0.06010437l-0.704895 0.06010437l-0.7026367 0.35131836l-9.975525 -12.6150055l0.5292969 -0.6448517l0.17565918 -0.82051086zm-49.05008 1.87677l10.033295 12.554901l-0.5292969 0.7049408l-0.17565918 0.82051086l-21.296173 0l-0.17797852 -0.82051086l-0.52697754 -0.7049408l10.033295 -12.554901l0.58706665 0.29353333l0.7026367 0.057785034l0.70492554 -0.057785034l0.64486694 -0.29353333zm9.388458 14.843079l0.17565918 0.82281494l0.52697754 0.6448517l-10.091095 12.612686l-0.64486694 -0.291214l-0.70492554 -0.117874146l-0.7026367 0.117874146l-0.58706665 0.291214l-10.033295 -12.612686l0.52697754 -0.6448517l0.17797852 -0.82281494zm-22.706085 1.87677l10.030975 12.61499l-0.52697754 0.6448517l-0.17565918 0.82281494l-21.180634 0l-0.11785889 -0.4691925l-0.35131836 -0.7049408l-0.35131836 -0.29353333l10.030975 -12.61499l0.64715576 0.29353333l0.7026367 0.117874146l0.70495605 -0.117874146l0.58706665 -0.29353333zm26.695343 0l9.855347 12.61499l-0.52697754 0.6448517l-0.17565918 0.82281494l-21.180664 0l-0.23571777 -0.82281494l-0.46917725 -0.6448517l9.975464 -12.61499l0.64489746 0.29353333l0.7626953 0.117874146l0.7026367 -0.117874146l0.64715576 -0.29353333zm9.15271 14.785294l0.17565918 0.82281494l0.52697754 0.6448517l-9.915466 12.6150055l-0.6448364 -0.29353333l-0.70495605 -0.117889404l-0.7025757 0.117889404l-0.64489746 0.29353333l-10.093353 -12.6150055l0.52926636 -0.6448517l0.17565918 -0.82281494zm-26.579803 0l0.17797852 0.82281494l0.526947 0.6448517l-10.033264 12.6150055l-0.52697754 -0.29353333l-0.70495605 0l-0.7026367 0.057769775l-0.70492554 0.29353333l-9.973206 -12.554901l0.52697754 -0.7049408l0.17565918 -0.8806zm16.017181 -186.98305l-0.5269165 0.05778122l-0.9984741 0.41140747l-0.7026367 0.7026329l-0.411438 0.9383812l0 0.58706665l0 0.52928543l0.411438 0.9383812l0.35131836 0.41140747l-10.033325 12.554909l-0.5847473 -0.29353333l-0.70495605 -0.057785034l-0.70492554 0.057785034l-0.64486694 0.29353333l-10.148834 -12.497124l0.29119873 -0.35131836l0.41140747 -0.9383812l0.06011963 -0.58706665l-0.06011963 -0.52928543l-0.35128784 -0.9961624l-0.76272583 -0.7049408l-0.938385 -0.4114113l-1.1163635 0l-0.938385 0.4114113l-0.7026367 0.7049408l-0.41140747 0.9961624l-0.057769775 0.52928543l0.057769775 0.5269737l0.41140747 0.9984741l0.35131836 0.35131836l-9.973175 12.614998l-0.58706665 -0.35363007l-0.70495605 -0.057777405l-0.58706665 0.057777405l-0.938385 0.35363007l-0.70492554 0.76272583l-0.40911865 0.9383774l-0.06008911 0.52697754l0.06008911 0.58706665l0.40911865 0.938385l0.70492554 0.7049408l0.938385 0.41140747l0.58706665 0.057785034l0.70495605 -0.117881775l0.58706665 -0.29353333l9.973175 12.6150055l-0.35131836 0.35131073l-0.41140747 0.938385l-0.057769775 0.58706665l0.057769775 0.5292816l0.41140747 0.938385l0.35131836 0.41140747l-9.973175 12.554909l-0.58706665 -0.29353333l-0.70495605 -0.057785034l-0.58706665 0l-0.938385 0.40909576l-0.70492554 0.7049408l-0.40911865 0.99617004l-0.06008911 0.5292816l0.06008911 0.52697754l0.40911865 0.9984741l0.70492554 0.7049408l0.938385 0.40909576l0.58706665 0l0.70495605 -0.057777405l0.58706665 -0.29353333l9.973175 12.554901l-0.35131836 0.41140747l-0.41140747 0.938385l-0.057769775 0.5292816l0.057769775 0.52697754l0.41140747 0.9984741l0.35131836 0.35131836l-9.973175 12.614998l-0.58706665 -0.29353333l-0.70495605 -0.117874146l-0.58706665 0.057785034l-0.938385 0.41140747l-0.70492554 0.7049408l-0.40911865 0.938385l-0.06008911 0.58706665l0.06008911 0.5269623l0.40911865 0.938385l0.70492554 0.76272583l0.938385 0.35131836l0.58706665 0.06008911l0.70495605 -0.06008911l0.58706665 -0.35131836l9.973175 12.6150055l-0.35131836 0.3513031l-0.41140747 0.938385l-0.057769775 0.58706665l0.057769775 0.5292816l0.41140747 0.938385l0.35131836 0.4091034l-9.973175 12.6150055l-0.58706665 -0.35131836l-0.70495605 -0.06010437l-0.58706665 0.06010437l-0.938385 0.35131836l-0.70492554 0.7627106l-0.40911865 0.938385l-0.06008911 0.5292816l0.06008911 0.58706665l0.40911865 0.938385l0.70492554 0.7026367l0.938385 0.41140747l0.58706665 0.057785034l0.70495605 -0.11557007l0.58706665 -0.29353333l9.973175 12.612686l-0.35131836 0.3536377l-0.35360718 0.8806l0 0.5269623l0 0.52697754l0.41140747 0.9406891l0.29351807 0.35131836l-9.973175 12.6150055l-0.58706665 -0.3536377l-0.70495605 -0.057769775l-0.58706665 0.057769775l-0.938385 0.3536377l-0.70492554 0.76272583l-0.40911865 0.93836975l-0.06008911 0.52697754l0.06008911 0.58706665l0.40911865 0.938385l0.70492554 0.7049408l0.938385 0.41140747l0.58706665 0.057785034l0.70495605 -0.117874146l0.58706665 -0.29353333l9.973175 12.61499l-0.35131836 0.35131836l-0.35360718 0.938385l0 0.4691925l0 0.5292816l0.41140747 0.99617004l0.35131836 0.35362244l-9.915436 12.612686l-0.6448364 -0.291214l-0.70495605 -0.117874146l-0.526947 0.057769775l-0.99850464 0.41142273l-0.7026062 0.70262146l-0.41140747 0.9406891l0 0.5847626l0 0.5292816l0.41140747 0.938385l0.7026062 0.76272583l0.99850464 0.35131836l0.526947 0.06008911l0.70495605 -0.06008911l0.6448364 -0.35131836l9.915436 12.61499l-0.29354858 0.35131836l-0.35131836 0.938385l-0.057769775 0.5292816l0.057769775 0.52697754l0.35131836 0.938385l0.76272583 0.76272583l0.94070435 0.35362244l0.52697754 0.057785034l0.58706665 -0.057785034l0.938385 -0.35362244l0.70492554 -0.76272583l0.40908813 -0.938385l0.06011963 -0.52697754l-0.06011963 -0.5292816l-0.40908813 -0.99617004l-0.3536377 -0.35362244l10.033295 -12.612686l0.64486694 0.29353333l0.76272583 0.11557007l0.70492554 -0.11557007l0.64486694 -0.29353333l9.975494 12.612686l-0.29351807 0.35362244l-0.411438 0.938385l-0.057739258 0.58706665l0.057739258 0.52697754l0.35131836 0.938385l0.76275635 0.76272583l0.9383545 0.35362244l0.5292969 0.057785034l0.58709717 -0.057785034l0.9383545 -0.35362244l0.7026367 -0.76272583l0.41137695 -0.938385l0.06011963 -0.52697754l-0.06011963 -0.5292816l-0.41137695 -0.99617004l-0.35131836 -0.35362244l9.975525 -12.612686l0.5847168 0.29353333l0.70495605 0.11557007l0.58709717 -0.057785034l0.9383545 -0.41140747l0.70495605 -0.7026367l0.40911865 -0.938385l0.060058594 -0.58706665l-0.060058594 -0.5292816l-0.40911865 -0.938385l-0.70495605 -0.76272583l-0.9383545 -0.3513031l-0.58709717 -0.06010437l-0.70495605 0.06010437l-0.5847168 0.3513031l-10.033325 -12.554901l0.35131836 -0.35362244l0.411438 -0.99617004l0 -0.5292816l0 -0.52697754l-0.411438 -0.938385l-0.35131836 -0.41140747l9.915405 -12.554901l0.64489746 0.29353333l0.704895 0.057785034l0.7026367 -0.057785034l0.64489746 -0.29353333l9.915405 12.554901l-0.35131836 0.41140747l-0.29351807 0.8806l-0.057800293 0.52697754l0.057800293 0.5292816l0.35357666 0.99617004l0.76275635 0.7049408l0.9383545 0.4091034l1.1140747 0l0.9383545 -0.4091034l0.70495605 -0.7049408l0.40911865 -0.99617004l0.060058594 -0.5292816l-0.060058594 -0.52697754l-0.40911865 -0.9406891l-0.3536377 -0.40908813l10.033325 -12.6150055l0.6448364 0.35131836l0.70495605 0.06008911l0.52923584 -0.06008911l0.9384155 -0.35131836l0.7626953 -0.76272583l0.35131836 -0.938385l0.057800293 -0.5292816l-0.057800293 -0.5847473l-0.35131836 -0.94070435l-0.7626953 -0.70262146l-0.9384155 -0.41140747l-0.52923584 -0.057785034l-0.82055664 0.117874146l-0.58703613 0.291214l-10.033325 -12.612686l0.35131836 -0.35362244l0.411438 -0.99617004l0 -0.5292816l0 -0.52697754l-0.411438 -0.93836975l-0.35131836 -0.41142273l10.033325 -12.554901l0.58703613 0.29353333l0.82055664 0.057785034l0.704895 -0.057785034l0.58709717 -0.29353333l10.030945 12.554901l-0.35131836 0.41142273l-0.41137695 0.93836975l0 0.52697754l0 0.58706665l0.41137695 0.938385l0.70495605 0.7049408l0.9961548 0.41140747l0.5292969 0.057785034l0.52697754 -0.057785034l0.9984741 -0.41140747l0.7026367 -0.7049408l0.411438 -0.938385l0 -0.58706665l0 -0.4691925l-0.411438 -0.938385l-0.35131836 -0.3513031l9.915405 -12.6150055l0.64489746 0.29353333l0.704895 0.117874146l0.52697754 -0.057785034l0.9984741 -0.41140747l0.7026367 -0.7049408l0.411438 -0.938385l0 -0.58706665l0 -0.5269623l-0.35131836 -0.938385l-0.6448364 -0.7049408l-0.88061523 -0.35131836l-0.5292969 -0.06008911l-0.7026367 0.117874146l-0.64715576 0.29353333l-9.915405 -12.6150055l0.3536377 -0.35131836l0.40905762 -0.938385l0 -0.58706665l0 -0.5269623l-0.40905762 -0.94070435l-0.3536377 -0.40908813l9.915405 -12.55722l0.64715576 0.29353333l0.7026367 0.06008911l0.5292969 0l0.9961548 -0.41140747l0.70495605 -0.7049408l0.41137695 -0.99617004l0 -0.5292816l0 -0.5269623l-0.41137695 -0.9984894l-0.70495605 -0.70262146l-0.9961548 -0.41140747l-0.5292969 0l-0.7026367 0.057785034l-0.64715576 0.29353333l-9.915405 -12.554916l0.3536377 -0.41140747l0.40905762 -0.9383774l0 -0.52697754l0 -0.58706665l-0.40905762 -0.9383774l-0.70495605 -0.7049484l-0.9961548 -0.41140747l-0.5292969 -0.057777405l-0.52697754 0.057777405l-0.9984741 0.41140747l-0.7026367 0.7049484l-0.41137695 0.9383774l0 0.58706665l0 0.52697754l0.41137695 0.9383774l0.35131836 0.41140747l-10.033264 12.554916l-0.58709717 -0.29353333l-0.7026367 -0.057785034l-0.70495605 0.057785034l-0.6448364 0.29353333l-10.033264 -12.554916l0.35131836 -0.41140747l0.41137695 -0.9383774l0.057800293 -0.52697754l-0.057800293 -0.5292816l-0.41137695 -0.9961624l-0.35131836 -0.35363007l10.033264 -12.612686l0.6448364 0.29353333l0.70495605 0.11556244l0.52697754 -0.057785034l0.9383545 -0.41140747l0.76275635 -0.7026291l0.3536377 -0.938385l0.057739258 -0.58706665l-0.057739258 -0.5292816l-0.3536377 -0.938385l-0.76275635 -0.76272583l-0.9383545 -0.35131073l-0.52697754 -0.06009674l-0.70495605 0.06009674l-0.6448364 0.35131073l-10.033264 -12.614998l0.35131836 -0.35131073l0.41137695 -0.938385l0.057800293 -0.58706665l-0.057800293 -0.5269699l-0.41137695 -0.99848175l-0.7026367 -0.7026291l-0.9384155 -0.41140747l-1.116333 0l-0.9384155 0.41140747l-0.7626953 0.7026291l-0.35131836 0.99848175l-0.06011963 0.5269699l0.06011963 0.5292816l0.40911865 0.99617004l0.29351807 0.35131073l-9.915405 12.614998l-0.6448364 -0.35131073l-0.7026367 -0.06009674l-0.70495605 0.06009674l-0.58709717 0.35131073l-10.266724 -12.554901l0.35131836 -0.35131836l0.411438 -0.9406891l0 -0.58475494l0 -0.52928925l-0.411438 -0.9383774l-0.35131836 -0.4114151l9.915405 -12.554901l0.64489746 0.29353333l0.704895 0.057777405l0.52697754 0l0.9984741 -0.40909576l0.7026367 -0.7049408l0.411438 -0.9984741l0 -0.52697754l0 -0.5292816l-0.411438 -0.9961624l-0.7026367 -0.7049484l-0.9984741 -0.40909576l-0.52697754 0l-0.704895 0.057785034l-0.64489746 0.29353333l-9.915405 -12.554909l0.35131836 -0.41140747l0.411438 -0.9383812l0 -0.52928543l0 -0.58706665l-0.411438 -0.9383812l-0.70495605 -0.7026329l-0.9961548 -0.41140747l-0.5292969 -0.05778122z" fill-rule="nonzero"></path><path fill="#000000" fill-opacity="0.0" d="m0 17.63517l344.50394 0l0 268.31497l-344.50394 0z" fill-rule="nonzero"></path><path fill="#ffffff" d="m193.85905 66.239525l4.71875 0l0 27.953125l-4.71875 0l0 -27.953125zm16.323746 16.4375l0 11.515625l-4.484375 0l0 -21.28125l4.484375 0l0 3.875q1.078125 -1.953125 2.96875 -3.0625q1.90625 -1.125 4.109375 -1.125q3.609375 0 5.828125 2.203125q2.21875 2.1875 2.21875 6.34375l0 13.046875l-4.484375 0l0 -11.6875q0 -5.875 -4.875 -5.875q-2.328125 0 -4.046875 1.546875q-1.71875 1.53125 -1.71875 4.5zm36.52748 5.15625q0 3.046875 -2.203125 4.859375q-2.203125 1.8125 -5.640625 1.8125q-2.328125 0 -4.828125 -0.828125q-2.5 -0.84375 -4.421875 -2.359375l2.171875 -3.484375q3.71875 2.796875 7.203125 2.796875q1.515625 0 2.390625 -0.6875q0.875 -0.703125 0.875 -1.796875q0 -1.59375 -4.234375 -2.875q-0.3125 -0.125 -0.484375 -0.15625q-6.640625 -1.796875 -6.640625 -6.0q0 -2.96875 2.296875 -4.734375q2.3125 -1.78125 5.984375 -1.78125q3.6875 0 6.96875 2.15625l-1.6875 3.3125q-2.59375 -1.71875 -5.640625 -1.71875q-1.59375 0 -2.59375 0.578125q-1.0 0.578125 -1.0 1.75q0 1.03125 1.03125 1.515625q0.734375 0.359375 2.03125 0.6875q1.296875 0.3125 2.296875 0.640625q1.0 0.3125 1.9375 0.71875q0.9375 0.390625 2.015625 1.109375q2.171875 1.4375 2.171875 4.484375zm10.59935 -11.328125l0 10.8125q0 1.515625 0.796875 2.421875q0.796875 0.890625 2.234375 0.890625q1.4375 0 2.765625 -1.390625l1.84375 3.15625q-2.359375 2.109375 -5.234375 2.109375q-2.859375 0 -4.875 -1.96875q-2.015625 -1.984375 -2.015625 -5.34375l0 -10.6875l-2.6875 0l0 -3.59375l2.6875 0l0 -6.671875l4.484375 0l0 6.671875l5.59375 0l0 3.59375l-5.59375 0zm15.673096 17.6875l-4.484375 0l0 -21.28125l4.484375 0l0 21.28125zm-4.203125 -25.515625q-0.828125 -0.84375 -0.828125 -2.0q0 -1.171875 0.828125 -2.0q0.84375 -0.84375 2.0 -0.84375q1.171875 0 2.0 0.84375q0.84375 0.828125 0.84375 2.0q0 1.15625 -0.84375 2.0q-0.828125 0.828125 -2.0 0.828125q-1.15625 0 -2.0 -0.828125zm16.210022 7.828125l0 10.8125q0 1.515625 0.796875 2.421875q0.796875 0.890625 2.234375 0.890625q1.4375 0 2.765625 -1.390625l1.84375 3.15625q-2.359375 2.109375 -5.234375 2.109375q-2.859375 0 -4.875 -1.96875q-2.015625 -1.984375 -2.015625 -5.34375l0 -10.6875l-2.6875 0l0 -3.59375l2.6875 0l0 -6.671875l4.484375 0l0 6.671875l5.59375 0l0 3.59375l-5.59375 0zm26.079346 7.921875l0 -11.515625l4.46875 0l0 21.28125l-4.46875 0l0 -3.875q-1.078125 1.953125 -2.984375 3.078125q-1.90625 1.109375 -4.09375 1.109375q-3.609375 0 -5.828125 -2.1875q-2.21875 -2.203125 -2.21875 -6.359375l0 -13.046875l4.484375 0l0 11.6875q0 5.875 4.875 5.875q2.328125 0 4.046875 -1.53125q1.71875 -1.546875 1.71875 -4.515625zm16.48059 -7.921875l0 10.8125q0 1.515625 0.796875 2.421875q0.796875 0.890625 2.234375 0.890625q1.4375 0 2.765625 -1.390625l1.84375 3.15625q-2.359375 2.109375 -5.234375 2.109375q-2.859375 0 -4.875 -1.96875q-2.015625 -1.984375 -2.015625 -5.34375l0 -10.6875l-2.6875 0l0 -3.59375l2.6875 0l0 -6.671875l4.484375 0l0 6.671875l5.59375 0l0 3.59375l-5.59375 0z" fill-rule="nonzero"></path><path fill="#ffffff" d="m23.026093 142.50516q-4.046875 0 -7.046875 -3.03125q-3.0 -3.046875 -3.0 -8.0q0 -4.9687576 3.078125 -7.9218826q3.09375 -2.953125 7.34375 -2.953125q4.265625 0 6.859375 3.59375l0 -11.6875l4.484375 0l0 29.687508l-4.484375 0l0 -3.203125q-2.46875 3.515625 -7.234375 3.515625zm-5.5625 -10.84375q0 3.046875 1.953125 4.96875q1.96875 1.921875 4.609375 1.921875q2.640625 0 4.46875 -1.9375q1.84375 -1.9375 1.84375 -4.96875q0 -3.046875 -1.84375 -5.0937576q-1.828125 -2.046875 -4.515625 -2.046875q-2.671875 0 -4.59375 2.046875q-1.921875 2.0468826 -1.921875 5.1093826zm43.567474 1.84375l-16.6875 0q0.15625 2.328125 2.109375 3.75q1.96875 1.421875 4.484375 1.421875q4.0 0 6.09375 -2.53125l2.546875 2.8125q-3.4375 3.546875 -8.953125 3.546875q-4.484375 0 -7.625 -2.96875q-3.140625 -2.984375 -3.140625 -8.0q0 -5.0312576 3.203125 -7.9843826q3.203125 -2.953125 7.53125 -2.953125q4.34375 0 7.390625 2.625q3.046875 2.609375 3.046875 7.2031326l0 3.078125zm-16.6875 -3.515625l12.203125 0q0 -2.6718826 -1.6875 -4.1093826q-1.671875 -1.453125 -4.140625 -1.453125q-2.453125 0 -4.421875 1.5q-1.953125 1.5 -1.953125 4.0625076zm36.766846 5.84375q0 3.046875 -2.203125 4.859375q-2.203125 1.8125 -5.640625 1.8125q-2.328125 0 -4.828125 -0.828125q-2.5 -0.84375 -4.421875 -2.359375l2.171875 -3.484375q3.71875 2.796875 7.203125 2.796875q1.515625 0 2.390625 -0.6875q0.875 -0.703125 0.875 -1.796875q0 -1.59375 -4.234375 -2.875q-0.3125 -0.125 -0.484375 -0.15625q-6.640625 -1.796875 -6.640625 -6.0000076q0 -2.96875 2.296875 -4.734375q2.3125 -1.78125 5.984375 -1.78125q3.6875 0 6.96875 2.15625l-1.6875 3.3125q-2.59375 -1.71875 -5.640625 -1.71875q-1.59375 0 -2.59375 0.578125q-1.0 0.578125 -1.0 1.75q0 1.03125 1.03125 1.5156326q0.734375 0.359375 2.03125 0.6875q1.296875 0.3125 2.296875 0.640625q1.0 0.3125 1.9375 0.71875q0.9375 0.390625 2.015625 1.109375q2.171875 1.4375 2.171875 4.484375zm33.27809 6.359375l-4.078125 0l0 -2.84375q-2.640625 3.15625 -7.09375 3.15625q-3.3125 0 -5.5 -1.875q-2.171875 -1.875 -2.171875 -5.015625q0 -3.140625 2.3125 -4.703125q2.328125 -1.5625 6.28125 -1.5625l5.8125 0l0 -0.796875q0 -4.2343826 -4.734375 -4.2343826q-2.953125 0 -6.15625 2.15625l-2.0 -2.796875q3.890625 -3.078125 8.796875 -3.078125q3.765625 0 6.140625 1.90625q2.390625 1.890625 2.390625 5.9687576l0 13.71875zm-4.484375 -7.921875l0 -1.796875l-5.046875 0q-4.828125 0 -4.828125 3.03125q0 1.5625 1.1875 2.390625q1.203125 0.8125 3.34375 0.8125q2.140625 0 3.734375 -1.1875q1.609375 -1.203125 1.609375 -3.25zm15.19873 7.921875l-4.484375 0l0 -29.687508l4.484375 0l0 29.687508zm26.163116 -21.281258l0 18.562508q0 5.640625 -3.0625 8.453125q-3.0625 2.828125 -7.859375 2.828125q-4.796875 0 -8.6875 -3.0l2.125 -3.40625q3.125 2.359375 6.296875 2.359375q3.1875 0 5.046875 -1.640625q1.859375 -1.640625 1.859375 -5.234375l0 -2.71875q-1.0 1.875 -2.859375 3.0q-1.859375 1.125 -4.1875 1.125q-4.234375 0 -6.953125 -2.953125q-2.71875 -2.96875 -2.71875 -7.375q0 -4.4062576 2.71875 -7.3593826q2.71875 -2.953125 6.9375 -2.953125q4.21875 0 6.859375 3.46875l0 -3.15625l4.484375 0zm-16.609375 9.828133q0 2.609375 1.625 4.515625q1.625 1.890625 4.359375 1.890625q2.75 0 4.4375 -1.828125q1.703125 -1.84375 1.703125 -4.578125q0 -2.7500076 -1.71875 -4.6406326q-1.71875 -1.90625 -4.4375 -1.90625q-2.71875 0 -4.34375 1.96875q-1.625 1.9531326 -1.625 4.5781326zm28.066223 5.828125q1.90625 1.9375 4.8125 1.9375q2.921875 0 4.828125 -1.9375q1.90625 -1.9375 1.90625 -5.015625q0 -3.078125 -1.90625 -5.0156326q-1.90625 -1.9375 -4.828125 -1.9375q-2.90625 0 -4.8125 1.9375q-1.90625 1.9375076 -1.90625 5.0156326q0 3.078125 1.90625 5.015625zm12.8125 2.765625q-3.1875 3.171875 -8.0 3.171875q-4.796875 0 -8.0 -3.171875q-3.1875 -3.1875 -3.1875 -7.78125q0 -4.5937576 3.1875 -7.7656326q3.203125 -3.1875 8.0 -3.1875q4.8125 0 8.0 3.1875q3.203125 3.171875 3.203125 7.7656326q0 4.59375 -3.203125 7.78125zm19.454971 -14.218758q-3.328125 0 -5.015625 2.15625q-1.671875 2.1562576 -1.671875 5.7968826l0 9.125l-4.484375 0l0 -21.281258l4.484375 0l0 4.28125q1.078125 -2.0 2.9375 -3.28125q1.859375 -1.28125 3.9375 -1.3125l0.046875 4.515625q-0.125 0 -0.234375 0zm9.19249 17.078133l-4.484375 0l0 -21.281258l4.484375 0l0 21.281258zm-4.203125 -25.515633q-0.828125 -0.84375 -0.828125 -2.0q0 -1.171875 0.828125 -2.0q0.84375 -0.84375 2.0 -0.84375q1.171875 0 2.0 0.84375q0.84375 0.828125 0.84375 2.0q0 1.15625 -0.84375 2.0q-0.828125 0.828125 -2.0 0.828125q-1.15625 0 -2.0 -0.828125zm16.209991 7.828125l0 10.812508q0 1.515625 0.796875 2.421875q0.796875 0.890625 2.234375 0.890625q1.4375 0 2.765625 -1.390625l1.84375 3.15625q-2.359375 2.109375 -5.234375 2.109375q-2.859375 0 -4.875 -1.96875q-2.015625 -1.984375 -2.015625 -5.34375l0 -10.687508l-2.6875 0l0 -3.59375l2.6875 0l0 -6.671875l4.484375 0l0 6.671875l5.59375 0l0 3.59375l-5.59375 0zm15.673111 6.1718826l0 11.515625l-4.484375 0l0 -29.640633l4.484375 0l0 12.234375q0.96875 -1.953125 2.90625 -3.0625q1.9375 -1.125 4.171875 -1.125q3.609375 0 5.828125 2.203125q2.21875 2.1875 2.21875 6.3437576l0 13.046875l-4.484375 0l0 -11.6875q0 -5.8750076 -4.875 -5.8750076q-2.328125 0 -4.046875 1.546875q-1.71875 1.53125 -1.71875 4.5000076zm25.839996 0l0 11.515625l-4.4843903 0l0 -21.281258l4.4843903 0l0 3.875q0.96875 -1.953125 2.90625 -3.0625q1.9375 -1.125 4.171875 -1.125q5.046875 0 6.84375 4.15625q3.15625 -4.15625 7.875 -4.15625q3.609375 0 5.828125 2.203125q2.21875 2.1875 2.21875 6.3437576l0 13.046875l-4.484375 0l0 -11.6875q0 -5.8750076 -4.875 -5.8750076q-2.28125 0 -3.984375 1.46875q-1.703125 1.453125 -1.78125 4.2500076l0 11.84375l-4.484375 0l0 -11.6875q0 -3.0312576 -1.078125 -4.4531326q-1.078125 -1.421875 -3.40625 -1.421875q-2.3125 0 -4.03125 1.546875q-1.71875 1.53125 -1.71875 4.5000076zm55.888092 2.828125l-16.6875 0q0.15625 2.328125 2.109375 3.75q1.96875 1.421875 4.484375 1.421875q4.0 0 6.09375 -2.53125l2.546875 2.8125q-3.4375 3.546875 -8.953125 3.546875q-4.484375 0 -7.625 -2.96875q-3.140625 -2.984375 -3.140625 -8.0q0 -5.0312576 3.203125 -7.9843826q3.203125 -2.953125 7.53125 -2.953125q4.34375 0 7.390625 2.625q3.046875 2.609375 3.046875 7.2031326l0 3.078125zm-16.6875 -3.515625l12.203125 0q0 -2.6718826 -1.6875 -4.1093826q-1.671875 -1.453125 -4.140625 -1.453125q-2.453125 0 -4.421875 1.5q-1.953125 1.5 -1.953125 4.0625076zm36.766846 5.84375q0 3.046875 -2.203125 4.859375q-2.203125 1.8125 -5.640625 1.8125q-2.328125 0 -4.828125 -0.828125q-2.5 -0.84375 -4.421875 -2.359375l2.171875 -3.484375q3.71875 2.796875 7.203125 2.796875q1.515625 0 2.390625 -0.6875q0.875 -0.703125 0.875 -1.796875q0 -1.59375 -4.234375 -2.875q-0.3125 -0.125 -0.484375 -0.15625q-6.640625 -1.796875 -6.640625 -6.0000076q0 -2.96875 2.296875 -4.734375q2.3125 -1.78125 5.984375 -1.78125q3.6875 0 6.96875 2.15625l-1.6875 3.3125q-2.59375 -1.71875 -5.640625 -1.71875q-1.59375 0 -2.59375 0.578125q-1.0 0.578125 -1.0 1.75q0 1.03125 1.03125 1.5156326q0.734375 0.359375 2.03125 0.6875q1.296875 0.3125 2.296875 0.640625q1.0 0.3125 1.9375 0.71875q0.9375 0.390625 2.015625 1.109375q2.171875 1.4375 2.171875 4.484375z" fill-rule="nonzero"></path><path fill="#ffffff" d="m25.666107 190.50516q-4.046875 0 -7.046875 -3.03125q-3.0 -3.046875 -3.0 -8.0q0 -4.96875 3.078125 -7.921875q3.09375 -2.953125 7.34375 -2.953125q4.265625 0 6.859375 3.59375l0 -11.6875l4.484375 0l0 29.6875l-4.484375 0l0 -3.203125q-2.46875 3.515625 -7.234375 3.515625zm-5.5625 -10.84375q0 3.046875 1.953125 4.96875q1.96875 1.921875 4.609375 1.921875q2.640625 0 4.46875 -1.9375q1.84375 -1.9375 1.84375 -4.96875q0 -3.046875 -1.84375 -5.09375q-1.828125 -2.046875 -4.515625 -2.046875q-2.671875 0 -4.59375 2.046875q-1.921875 2.046875 -1.921875 5.109375zm23.442474 -12.90625q-1.078125 -0.640625 -1.078125 -1.890625q0 -1.265625 0.71875 -1.96875q0.71875 -0.703125 1.796875 -0.703125q1.078125 0 1.8125 0.6875q0.75 0.671875 0.75 1.78125q0 1.09375 -0.71875 2.125l-2.359375 3.40625l-2.4375 0l1.515625 -3.4375zm26.242493 23.4375l-4.078125 0l0 -2.84375q-2.640625 3.15625 -7.09375 3.15625q-3.3125 0 -5.5 -1.875q-2.171875 -1.875 -2.171875 -5.015625q0 -3.140625 2.3125 -4.703125q2.328125 -1.5625 6.28125 -1.5625l5.8125 0l0 -0.796875q0 -4.234375 -4.734375 -4.234375q-2.953125 0 -6.15625 2.15625l-2.0 -2.796875q3.890625 -3.078125 8.796875 -3.078125q3.765625 0 6.140625 1.90625q2.390625 1.890625 2.390625 5.96875l0 13.71875zm-4.484375 -7.921875l0 -1.796875l-5.046875 0q-4.828125 0 -4.828125 3.03125q0 1.5625 1.1875 2.390625q1.203125 0.8125 3.34375 0.8125q2.140625 0 3.734375 -1.1875q1.609375 -1.203125 1.609375 -3.25zm22.120605 -13.671875q4.28125 0 7.3125 2.953125q3.046875 2.953125 3.046875 7.875q0 4.921875 -3.03125 8.0q-3.015625 3.078125 -7.03125 3.078125q-4.015625 0 -7.21875 -3.515625l0 10.96875l-4.484375 0l0 -29.046875l4.484375 0l0 3.71875q2.640625 -4.03125 6.921875 -4.03125zm-7.0 11.0q0 3.03125 1.828125 4.96875q1.84375 1.9375 4.484375 1.9375q2.640625 0 4.59375 -1.90625q1.96875 -1.921875 1.96875 -4.984375q0 -3.0625 -1.921875 -5.078125q-1.90625 -2.03125 -4.59375 -2.03125q-2.6875 0 -4.53125 2.03125q-1.828125 2.015625 -1.828125 5.0625zm33.879974 -11.0q4.28125 0 7.3125 2.953125q3.046875 2.953125 3.046875 7.875q0 4.921875 -3.03125 8.0q-3.015625 3.078125 -7.03125 3.078125q-4.015625 0 -7.21875 -3.515625l0 10.96875l-4.484375 0l0 -29.046875l4.484375 0l0 3.71875q2.640625 -4.03125 6.921875 -4.03125zm-7.0 11.0q0 3.03125 1.828125 4.96875q1.84375 1.9375 4.484375 1.9375q2.640625 0 4.59375 -1.90625q1.96875 -1.921875 1.96875 -4.984375q0 -3.0625 -1.921875 -5.078125q-1.90625 -2.03125 -4.59375 -2.03125q-2.6875 0 -4.53125 2.03125q-1.828125 2.015625 -1.828125 5.0625zm33.6456 -6.484375q-3.328125 0 -5.015625 2.15625q-1.671875 2.15625 -1.671875 5.796875l0 9.125l-4.484375 0l0 -21.28125l4.484375 0l0 4.28125q1.078125 -2.0 2.9375 -3.28125q1.859375 -1.28125 3.9375 -1.3125l0.046875 4.515625q-0.125 0 -0.234375 0zm24.520615 8.390625l-16.6875 0q0.15625 2.328125 2.109375 3.75q1.96875 1.421875 4.484375 1.421875q4.0 0 6.09375 -2.53125l2.546875 2.8125q-3.4375 3.546875 -8.953125 3.546875q-4.484375 0 -7.625 -2.96875q-3.140625 -2.984375 -3.140625 -8.0q0 -5.03125 3.203125 -7.984375q3.203125 -2.953125 7.53125 -2.953125q4.34375 0 7.390625 2.625q3.046875 2.609375 3.046875 7.203125l0 3.078125zm-16.6875 -3.515625l12.203125 0q0 -2.671875 -1.6875 -4.109375q-1.671875 -1.453125 -4.140625 -1.453125q-2.453125 0 -4.421875 1.5q-1.953125 1.5 -1.953125 4.0625zm26.079346 0.6875l0 11.515625l-4.484375 0l0 -21.28125l4.484375 0l0 3.875q1.078125 -1.953125 2.96875 -3.0625q1.90625 -1.125 4.109375 -1.125q3.609375 0 5.828125 2.203125q2.21875 2.1875 2.21875 6.34375l0 13.046875l-4.484375 0l0 -11.6875q0 -5.875 -4.875 -5.875q-2.328125 0 -4.046875 1.546875q-1.71875 1.53125 -1.71875 4.5zm26.886856 -6.171875l0 10.8125q0 1.515625 0.796875 2.421875q0.796875 0.890625 2.234375 0.890625q1.4375 0 2.765625 -1.390625l1.84375 3.15625q-2.359375 2.109375 -5.234375 2.109375q-2.859375 0 -4.875 -1.96875q-2.015625 -1.984375 -2.015625 -5.34375l0 -10.6875l-2.6875 0l0 -3.59375l2.6875 0l0 -6.671875l4.484375 0l0 6.671875l5.59375 0l0 3.59375l-5.59375 0zm15.673111 17.6875l-4.484375 0l0 -21.28125l4.484375 0l0 21.28125zm-4.203125 -25.515625q-0.828125 -0.84375 -0.828125 -2.0q0 -1.171875 0.828125 -2.0q0.84375 -0.84375 2.0 -0.84375q1.171875 0 2.0 0.84375q0.84375 0.828125 0.84375 2.0q0 1.15625 -0.84375 2.0q-0.828125 0.828125 -2.0 0.828125q-1.15625 0 -2.0 -0.828125zm25.850616 19.15625q0 3.046875 -2.203125 4.859375q-2.203125 1.8125 -5.640625 1.8125q-2.328125 0 -4.828125 -0.828125q-2.5 -0.84375 -4.421875 -2.359375l2.171875 -3.484375q3.71875 2.796875 7.203125 2.796875q1.515625 0 2.390625 -0.6875q0.875 -0.703125 0.875 -1.796875q0 -1.59375 -4.234375 -2.875q-0.3125 -0.125 -0.484375 -0.15625q-6.640625 -1.796875 -6.640625 -6.0q0 -2.96875 2.296875 -4.734375q2.3125 -1.78125 5.984375 -1.78125q3.6875 0 6.96875 2.15625l-1.6875 3.3125q-2.59375 -1.71875 -5.640625 -1.71875q-1.59375 0 -2.59375 0.578125q-1.0 0.578125 -1.0 1.75q0 1.03125 1.03125 1.515625q0.734375 0.359375 2.03125 0.6875q1.296875 0.3125 2.296875 0.640625q1.0 0.3125 1.9375 0.71875q0.9375 0.390625 2.015625 1.109375q2.171875 1.4375 2.171875 4.484375zm20.239975 0q0 3.046875 -2.203125 4.859375q-2.203125 1.8125 -5.640625 1.8125q-2.328125 0 -4.828125 -0.828125q-2.5 -0.84375 -4.421875 -2.359375l2.171875 -3.484375q3.71875 2.796875 7.203125 2.796875q1.515625 0 2.390625 -0.6875q0.875 -0.703125 0.875 -1.796875q0 -1.59375 -4.234375 -2.875q-0.3125 -0.125 -0.484375 -0.15625q-6.640625 -1.796875 -6.640625 -6.0q0 -2.96875 2.296875 -4.734375q2.3125 -1.78125 5.984375 -1.78125q3.6875 0 6.96875 2.15625l-1.6875 3.3125q-2.59375 -1.71875 -5.640625 -1.71875q-1.59375 0 -2.59375 0.578125q-1.0 0.578125 -1.0 1.75q0 1.03125 1.03125 1.515625q0.734375 0.359375 2.03125 0.6875q1.296875 0.3125 2.296875 0.640625q1.0 0.3125 1.9375 0.71875q0.9375 0.390625 2.015625 1.109375q2.171875 1.4375 2.171875 4.484375zm22.318085 6.359375l-4.078125 0l0 -2.84375q-2.640625 3.15625 -7.09375 3.15625q-3.3125 0 -5.5 -1.875q-2.171875 -1.875 -2.171875 -5.015625q0 -3.140625 2.3125 -4.703125q2.328125 -1.5625 6.28125 -1.5625l5.8125 0l0 -0.796875q0 -4.234375 -4.734375 -4.234375q-2.953125 0 -6.15625 2.15625l-2.0 -2.796875q3.890625 -3.078125 8.796875 -3.078125q3.765625 0 6.140625 1.90625q2.390625 1.890625 2.390625 5.96875l0 13.71875zm-4.484375 -7.921875l0 -1.796875l-5.046875 0q-4.828125 0 -4.828125 3.03125q0 1.5625 1.1875 2.390625q1.203125 0.8125 3.34375 0.8125q2.140625 0 3.734375 -1.1875q1.609375 -1.203125 1.609375 -3.25zm30.401886 -13.359375l0 18.5625q0 5.640625 -3.0625 8.453125q-3.0625 2.828125 -7.859375 2.828125q-4.796875 0 -8.6875 -3.0l2.125 -3.40625q3.125 2.359375 6.296875 2.359375q3.1875 0 5.046875 -1.640625q1.859375 -1.640625 1.859375 -5.234375l0 -2.71875q-1.0 1.875 -2.859375 3.0q-1.859375 1.125 -4.1875 1.125q-4.234375 0 -6.953125 -2.953125q-2.71875 -2.96875 -2.71875 -7.375q0 -4.40625 2.71875 -7.359375q2.71875 -2.953125 6.9375 -2.953125q4.21875 0 6.859375 3.46875l0 -3.15625l4.484375 0zm-16.609375 9.828125q0 2.609375 1.625 4.515625q1.625 1.890625 4.359375 1.890625q2.75 0 4.4375 -1.828125q1.703125 -1.84375 1.703125 -4.578125q0 -2.75 -1.71875 -4.640625q-1.71875 -1.90625 -4.4375 -1.90625q-2.71875 0 -4.34375 1.96875q-1.625 1.953125 -1.625 4.578125zm42.89435 2.765625l-16.6875 0q0.15625 2.328125 2.109375 3.75q1.96875 1.421875 4.484375 1.421875q4.0 0 6.09375 -2.53125l2.546875 2.8125q-3.4375 3.546875 -8.953125 3.546875q-4.484375 0 -7.625 -2.96875q-3.140625 -2.984375 -3.140625 -8.0q0 -5.03125 3.203125 -7.984375q3.203125 -2.953125 7.53125 -2.953125q4.34375 0 7.390625 2.625q3.046875 2.609375 3.046875 7.203125l0 3.078125zm-16.6875 -3.515625l12.203125 0q0 -2.671875 -1.6875 -4.109375q-1.671875 -1.453125 -4.140625 -1.453125q-2.453125 0 -4.421875 1.5q-1.953125 1.5 -1.953125 4.0625z" fill-rule="nonzero"></path><path fill="#ffffff" d="m101.86604 238.50516q-4.046875 0 -7.046875 -3.03125q-3.0 -3.046875 -3.0 -8.0q0 -4.96875 3.078125 -7.921875q3.09375 -2.953125 7.34375 -2.953125q4.265625 0 6.859375 3.59375l0 -11.6875l4.484375 0l0 29.6875l-4.484375 0l0 -3.203125q-2.46875 3.515625 -7.234375 3.515625zm-5.5625 -10.84375q0 3.046875 1.953125 4.96875q1.96875 1.921875 4.609375 1.921875q2.640625 0 4.46875 -1.9375q1.84375 -1.9375 1.84375 -4.96875q0 -3.046875 -1.84375 -5.09375q-1.828125 -2.046875 -4.515625 -2.046875q-2.671875 0 -4.59375 2.046875q-1.921875 2.046875 -1.921875 5.109375zm43.567474 1.84375l-16.6875 0q0.15625 2.328125 2.109375 3.75q1.96875 1.421875 4.484375 1.421875q4.0 0 6.09375 -2.53125l2.546875 2.8125q-3.4375 3.546875 -8.953125 3.546875q-4.484375 0 -7.625 -2.96875q-3.140625 -2.984375 -3.140625 -8.0q0 -5.03125 3.203125 -7.984375q3.203125 -2.953125 7.53125 -2.953125q4.34375 0 7.390625 2.625q3.046875 2.609375 3.046875 7.203125l0 3.078125zm-16.6875 -3.515625l12.203125 0q0 -2.671875 -1.6875 -4.109375q-1.671875 -1.453125 -4.140625 -1.453125q-2.453125 0 -4.421875 1.5q-1.953125 1.5 -1.953125 4.0625zm37.914337 12.203125l-4.71875 0l0 -27.953125l7.359375 0l8.453125 17.546875l8.4375 -17.546875l7.3125 0l0 27.953125l-4.71875 0l0 -21.84375l-9.765625 19.40625l-2.640625 0l-9.71875 -19.40625l0 21.84375zm38.94496 -5.625q1.90625 1.9375 4.8125 1.9375q2.921875 0 4.828125 -1.9375q1.90625 -1.9375 1.90625 -5.015625q0 -3.078125 -1.90625 -5.015625q-1.90625 -1.9375 -4.828125 -1.9375q-2.90625 0 -4.8125 1.9375q-1.90625 1.9375 -1.90625 5.015625q0 3.078125 1.90625 5.015625zm12.8125 2.765625q-3.1875 3.171875 -8.0 3.171875q-4.796875 0 -8.0 -3.171875q-3.1875 -3.1875 -3.1875 -7.78125q0 -4.59375 3.1875 -7.765625q3.203125 -3.1875 8.0 -3.1875q4.8125 0 8.0 3.1875q3.203125 3.171875 3.203125 7.765625q0 4.59375 -3.203125 7.78125zm12.767471 -8.65625l0 11.515625l-4.484375 0l0 -21.28125l4.484375 0l0 3.875q1.078125 -1.953125 2.96875 -3.0625q1.90625 -1.125 4.109375 -1.125q3.609375 0 5.828125 2.203125q2.21875 2.1875 2.21875 6.34375l0 13.046875l-4.484375 0l0 -11.6875q0 -5.875 -4.875 -5.875q-2.328125 0 -4.046875 1.546875q-1.71875 1.53125 -1.71875 4.5zm26.886856 -6.171875l0 10.8125q0 1.515625 0.796875 2.421875q0.796875 0.890625 2.234375 0.890625q1.4375 0 2.765625 -1.390625l1.84375 3.15625q-2.359375 2.109375 -5.234375 2.109375q-2.859375 0 -4.875 -1.96875q-2.015625 -1.984375 -2.015625 -5.34375l0 -10.6875l-2.6875 0l0 -3.59375l2.6875 0l0 -6.671875l4.484375 0l0 6.671875l5.59375 0l0 3.59375l-5.59375 0zm22.360596 0.609375q-3.328125 0 -5.015625 2.15625q-1.671875 2.15625 -1.671875 5.796875l0 9.125l-4.484375 0l0 -21.28125l4.484375 0l0 4.28125q1.078125 -2.0 2.9375 -3.28125q1.859375 -1.28125 3.9375 -1.3125l0.046875 4.515625q-0.125 0 -0.234375 0zm24.52063 8.390625l-16.6875 0q0.15625 2.328125 2.109375 3.75q1.96875 1.421875 4.484375 1.421875q4.0 0 6.09375 -2.53125l2.546875 2.8125q-3.4375 3.546875 -8.953125 3.546875q-4.484375 0 -7.625 -2.96875q-3.140625 -2.984375 -3.140625 -8.0q0 -5.03125 3.203125 -7.984375q3.203125 -2.953125 7.53125 -2.953125q4.34375 0 7.390625 2.625q3.046875 2.609375 3.046875 7.203125l0 3.078125zm-16.6875 -3.515625l12.203125 0q0 -2.671875 -1.6875 -4.109375q-1.671875 -1.453125 -4.140625 -1.453125q-2.453125 0 -4.421875 1.5q-1.953125 1.5 -1.953125 4.0625zm8.6875 -11.875l-4.09375 0l4.25 -5.796875l4.71875 1.953125l-4.875 3.84375zm30.15747 24.078125l-4.078125 0l0 -2.84375q-2.640625 3.15625 -7.09375 3.15625q-3.3125 0 -5.5 -1.875q-2.171875 -1.875 -2.171875 -5.015625q0 -3.140625 2.3125 -4.703125q2.328125 -1.5625 6.28125 -1.5625l5.8125 0l0 -0.796875q0 -4.234375 -4.734375 -4.234375q-2.953125 0 -6.15625 2.15625l-2.0 -2.796875q3.890625 -3.078125 8.796875 -3.078125q3.765625 0 6.140625 1.90625q2.390625 1.890625 2.390625 5.96875l0 13.71875zm-4.484375 -7.921875l0 -1.796875l-5.046875 0q-4.828125 0 -4.828125 3.03125q0 1.5625 1.1875 2.390625q1.203125 0.8125 3.34375 0.8125q2.140625 0 3.734375 -1.1875q1.609375 -1.203125 1.609375 -3.25zm15.19873 7.921875l-4.484375 0l0 -29.6875l4.484375 0l0 29.6875z" fill-rule="nonzero"></path></g></svg>

